G04 MADE WITH FRITZING*
G04 WWW.FRITZING.ORG*
G04 DOUBLE SIDED*
G04 HOLES PLATED*
G04 CONTOUR ON CENTER OF CONTOUR VECTOR*
%ASAXBY*%
%FSLAX23Y23*%
%MOIN*%
%OFA0B0*%
%SFA1.0B1.0*%
%ADD10C,0.075000*%
%ADD11C,0.060000*%
%ADD12C,0.078000*%
%ADD13C,0.024000*%
%ADD14R,0.001000X0.001000*%
%LNCOPPER0*%
G90*
G70*
G54D10*
X114Y1657D03*
X119Y460D03*
G54D11*
X781Y1485D03*
X681Y1485D03*
X581Y1485D03*
G54D12*
X981Y1685D03*
X981Y1585D03*
X981Y1485D03*
X981Y1385D03*
X981Y1285D03*
X981Y1185D03*
X981Y1085D03*
X981Y985D03*
X981Y885D03*
X981Y785D03*
X981Y685D03*
X981Y585D03*
X381Y1685D03*
X381Y1585D03*
X381Y1485D03*
X381Y1385D03*
X381Y1285D03*
X381Y1185D03*
X381Y1085D03*
X381Y985D03*
X381Y885D03*
X381Y785D03*
X381Y685D03*
X381Y585D03*
X281Y1285D03*
X281Y1185D03*
X281Y1085D03*
X281Y985D03*
X281Y885D03*
X281Y785D03*
X281Y685D03*
X281Y585D03*
X181Y1285D03*
X181Y1185D03*
X181Y1085D03*
X181Y985D03*
X181Y885D03*
X181Y785D03*
X181Y685D03*
X181Y585D03*
X81Y1285D03*
X81Y1185D03*
X81Y1085D03*
X81Y985D03*
X81Y885D03*
X81Y785D03*
X81Y685D03*
X81Y585D03*
G54D10*
X881Y85D03*
X981Y85D03*
G54D12*
X981Y185D03*
X881Y185D03*
X781Y185D03*
X681Y185D03*
X981Y285D03*
X881Y285D03*
X781Y285D03*
X681Y285D03*
G54D13*
X482Y186D02*
X482Y1585D01*
D02*
X482Y1585D02*
X411Y1585D01*
D02*
X651Y185D02*
X482Y186D01*
D02*
X682Y1186D02*
X881Y1186D01*
D02*
X881Y1186D02*
X881Y484D01*
D02*
X1081Y186D02*
X1011Y185D01*
D02*
X1081Y484D02*
X1081Y186D01*
D02*
X881Y484D02*
X1081Y484D01*
D02*
X681Y1454D02*
X682Y1186D01*
D02*
X81Y1215D02*
X81Y1255D01*
D02*
X81Y1115D02*
X81Y1155D01*
D02*
X81Y1015D02*
X81Y1055D01*
D02*
X81Y915D02*
X81Y955D01*
D02*
X81Y815D02*
X81Y855D01*
D02*
X81Y715D02*
X81Y755D01*
D02*
X81Y615D02*
X81Y655D01*
D02*
X181Y1215D02*
X181Y1255D01*
D02*
X181Y1115D02*
X181Y1155D01*
D02*
X181Y1015D02*
X181Y1055D01*
D02*
X181Y915D02*
X181Y955D01*
D02*
X181Y815D02*
X181Y855D01*
D02*
X181Y715D02*
X181Y755D01*
D02*
X181Y615D02*
X181Y655D01*
D02*
X351Y1285D02*
X311Y1285D01*
D02*
X351Y1185D02*
X311Y1185D01*
D02*
X351Y1085D02*
X311Y1085D01*
D02*
X351Y985D02*
X311Y985D01*
D02*
X351Y885D02*
X311Y885D01*
D02*
X351Y785D02*
X311Y785D01*
D02*
X351Y685D02*
X311Y685D01*
D02*
X351Y585D02*
X311Y585D01*
G36*
X40Y1818D02*
X40Y1734D01*
X988Y1734D01*
X988Y1732D01*
X994Y1732D01*
X994Y1730D01*
X1000Y1730D01*
X1000Y1728D01*
X1004Y1728D01*
X1004Y1726D01*
X1006Y1726D01*
X1006Y1724D01*
X1010Y1724D01*
X1010Y1722D01*
X1012Y1722D01*
X1012Y1720D01*
X1014Y1720D01*
X1014Y1718D01*
X1016Y1718D01*
X1016Y1716D01*
X1018Y1716D01*
X1018Y1714D01*
X1020Y1714D01*
X1020Y1710D01*
X1022Y1710D01*
X1022Y1708D01*
X1024Y1708D01*
X1024Y1704D01*
X1026Y1704D01*
X1026Y1700D01*
X1028Y1700D01*
X1028Y1694D01*
X1030Y1694D01*
X1030Y1676D01*
X1028Y1676D01*
X1028Y1670D01*
X1026Y1670D01*
X1026Y1666D01*
X1024Y1666D01*
X1024Y1662D01*
X1022Y1662D01*
X1022Y1658D01*
X1020Y1658D01*
X1020Y1656D01*
X1018Y1656D01*
X1018Y1654D01*
X1016Y1654D01*
X1016Y1652D01*
X1014Y1652D01*
X1014Y1650D01*
X1012Y1650D01*
X1012Y1648D01*
X1010Y1648D01*
X1010Y1646D01*
X1008Y1646D01*
X1008Y1644D01*
X1006Y1644D01*
X1006Y1624D01*
X1010Y1624D01*
X1010Y1622D01*
X1012Y1622D01*
X1012Y1620D01*
X1014Y1620D01*
X1014Y1618D01*
X1016Y1618D01*
X1016Y1616D01*
X1018Y1616D01*
X1018Y1614D01*
X1020Y1614D01*
X1020Y1610D01*
X1022Y1610D01*
X1022Y1608D01*
X1024Y1608D01*
X1024Y1604D01*
X1026Y1604D01*
X1026Y1600D01*
X1028Y1600D01*
X1028Y1594D01*
X1030Y1594D01*
X1030Y1576D01*
X1028Y1576D01*
X1028Y1570D01*
X1026Y1570D01*
X1026Y1566D01*
X1024Y1566D01*
X1024Y1562D01*
X1022Y1562D01*
X1022Y1558D01*
X1020Y1558D01*
X1020Y1556D01*
X1018Y1556D01*
X1018Y1554D01*
X1016Y1554D01*
X1016Y1552D01*
X1014Y1552D01*
X1014Y1550D01*
X1012Y1550D01*
X1012Y1548D01*
X1010Y1548D01*
X1010Y1546D01*
X1008Y1546D01*
X1008Y1544D01*
X1006Y1544D01*
X1006Y1524D01*
X1010Y1524D01*
X1010Y1522D01*
X1012Y1522D01*
X1012Y1520D01*
X1014Y1520D01*
X1014Y1518D01*
X1016Y1518D01*
X1016Y1516D01*
X1018Y1516D01*
X1018Y1514D01*
X1020Y1514D01*
X1020Y1510D01*
X1022Y1510D01*
X1022Y1508D01*
X1024Y1508D01*
X1024Y1504D01*
X1026Y1504D01*
X1026Y1500D01*
X1028Y1500D01*
X1028Y1494D01*
X1030Y1494D01*
X1030Y1476D01*
X1028Y1476D01*
X1028Y1470D01*
X1026Y1470D01*
X1026Y1466D01*
X1024Y1466D01*
X1024Y1462D01*
X1022Y1462D01*
X1022Y1458D01*
X1020Y1458D01*
X1020Y1456D01*
X1018Y1456D01*
X1018Y1454D01*
X1016Y1454D01*
X1016Y1452D01*
X1014Y1452D01*
X1014Y1450D01*
X1012Y1450D01*
X1012Y1448D01*
X1010Y1448D01*
X1010Y1446D01*
X1008Y1446D01*
X1008Y1444D01*
X1006Y1444D01*
X1006Y1424D01*
X1010Y1424D01*
X1010Y1422D01*
X1012Y1422D01*
X1012Y1420D01*
X1014Y1420D01*
X1014Y1418D01*
X1016Y1418D01*
X1016Y1416D01*
X1018Y1416D01*
X1018Y1414D01*
X1020Y1414D01*
X1020Y1410D01*
X1022Y1410D01*
X1022Y1408D01*
X1024Y1408D01*
X1024Y1404D01*
X1026Y1404D01*
X1026Y1400D01*
X1028Y1400D01*
X1028Y1394D01*
X1030Y1394D01*
X1030Y1376D01*
X1028Y1376D01*
X1028Y1370D01*
X1026Y1370D01*
X1026Y1366D01*
X1024Y1366D01*
X1024Y1362D01*
X1022Y1362D01*
X1022Y1358D01*
X1020Y1358D01*
X1020Y1356D01*
X1018Y1356D01*
X1018Y1354D01*
X1016Y1354D01*
X1016Y1352D01*
X1014Y1352D01*
X1014Y1350D01*
X1012Y1350D01*
X1012Y1348D01*
X1010Y1348D01*
X1010Y1346D01*
X1008Y1346D01*
X1008Y1344D01*
X1006Y1344D01*
X1006Y1324D01*
X1010Y1324D01*
X1010Y1322D01*
X1012Y1322D01*
X1012Y1320D01*
X1014Y1320D01*
X1014Y1318D01*
X1016Y1318D01*
X1016Y1316D01*
X1018Y1316D01*
X1018Y1314D01*
X1020Y1314D01*
X1020Y1310D01*
X1022Y1310D01*
X1022Y1308D01*
X1024Y1308D01*
X1024Y1304D01*
X1026Y1304D01*
X1026Y1300D01*
X1028Y1300D01*
X1028Y1294D01*
X1030Y1294D01*
X1030Y1276D01*
X1028Y1276D01*
X1028Y1270D01*
X1026Y1270D01*
X1026Y1266D01*
X1024Y1266D01*
X1024Y1262D01*
X1022Y1262D01*
X1022Y1258D01*
X1020Y1258D01*
X1020Y1256D01*
X1018Y1256D01*
X1018Y1254D01*
X1016Y1254D01*
X1016Y1252D01*
X1014Y1252D01*
X1014Y1250D01*
X1012Y1250D01*
X1012Y1248D01*
X1010Y1248D01*
X1010Y1246D01*
X1008Y1246D01*
X1008Y1244D01*
X1006Y1244D01*
X1006Y1224D01*
X1010Y1224D01*
X1010Y1222D01*
X1012Y1222D01*
X1012Y1220D01*
X1014Y1220D01*
X1014Y1218D01*
X1016Y1218D01*
X1016Y1216D01*
X1018Y1216D01*
X1018Y1214D01*
X1020Y1214D01*
X1020Y1210D01*
X1022Y1210D01*
X1022Y1208D01*
X1024Y1208D01*
X1024Y1204D01*
X1026Y1204D01*
X1026Y1200D01*
X1028Y1200D01*
X1028Y1194D01*
X1030Y1194D01*
X1030Y1176D01*
X1028Y1176D01*
X1028Y1170D01*
X1026Y1170D01*
X1026Y1166D01*
X1024Y1166D01*
X1024Y1162D01*
X1022Y1162D01*
X1022Y1158D01*
X1020Y1158D01*
X1020Y1156D01*
X1018Y1156D01*
X1018Y1154D01*
X1016Y1154D01*
X1016Y1152D01*
X1014Y1152D01*
X1014Y1150D01*
X1012Y1150D01*
X1012Y1148D01*
X1010Y1148D01*
X1010Y1146D01*
X1008Y1146D01*
X1008Y1144D01*
X1006Y1144D01*
X1006Y1124D01*
X1010Y1124D01*
X1010Y1122D01*
X1012Y1122D01*
X1012Y1120D01*
X1014Y1120D01*
X1014Y1118D01*
X1016Y1118D01*
X1016Y1116D01*
X1018Y1116D01*
X1018Y1114D01*
X1020Y1114D01*
X1020Y1110D01*
X1022Y1110D01*
X1022Y1108D01*
X1024Y1108D01*
X1024Y1104D01*
X1026Y1104D01*
X1026Y1100D01*
X1028Y1100D01*
X1028Y1094D01*
X1030Y1094D01*
X1030Y1076D01*
X1028Y1076D01*
X1028Y1070D01*
X1026Y1070D01*
X1026Y1066D01*
X1024Y1066D01*
X1024Y1062D01*
X1022Y1062D01*
X1022Y1058D01*
X1020Y1058D01*
X1020Y1056D01*
X1018Y1056D01*
X1018Y1054D01*
X1016Y1054D01*
X1016Y1052D01*
X1014Y1052D01*
X1014Y1050D01*
X1012Y1050D01*
X1012Y1048D01*
X1010Y1048D01*
X1010Y1046D01*
X1008Y1046D01*
X1008Y1044D01*
X1006Y1044D01*
X1006Y1024D01*
X1010Y1024D01*
X1010Y1022D01*
X1012Y1022D01*
X1012Y1020D01*
X1014Y1020D01*
X1014Y1018D01*
X1016Y1018D01*
X1016Y1016D01*
X1018Y1016D01*
X1018Y1014D01*
X1020Y1014D01*
X1020Y1010D01*
X1022Y1010D01*
X1022Y1008D01*
X1024Y1008D01*
X1024Y1004D01*
X1026Y1004D01*
X1026Y1000D01*
X1028Y1000D01*
X1028Y994D01*
X1030Y994D01*
X1030Y976D01*
X1028Y976D01*
X1028Y970D01*
X1026Y970D01*
X1026Y966D01*
X1024Y966D01*
X1024Y962D01*
X1022Y962D01*
X1022Y958D01*
X1020Y958D01*
X1020Y956D01*
X1018Y956D01*
X1018Y954D01*
X1016Y954D01*
X1016Y952D01*
X1014Y952D01*
X1014Y950D01*
X1012Y950D01*
X1012Y948D01*
X1010Y948D01*
X1010Y946D01*
X1008Y946D01*
X1008Y944D01*
X1006Y944D01*
X1006Y924D01*
X1010Y924D01*
X1010Y922D01*
X1012Y922D01*
X1012Y920D01*
X1014Y920D01*
X1014Y918D01*
X1016Y918D01*
X1016Y916D01*
X1018Y916D01*
X1018Y914D01*
X1020Y914D01*
X1020Y910D01*
X1022Y910D01*
X1022Y908D01*
X1024Y908D01*
X1024Y904D01*
X1026Y904D01*
X1026Y900D01*
X1028Y900D01*
X1028Y894D01*
X1030Y894D01*
X1030Y876D01*
X1028Y876D01*
X1028Y870D01*
X1026Y870D01*
X1026Y866D01*
X1024Y866D01*
X1024Y862D01*
X1022Y862D01*
X1022Y858D01*
X1020Y858D01*
X1020Y856D01*
X1018Y856D01*
X1018Y854D01*
X1016Y854D01*
X1016Y852D01*
X1014Y852D01*
X1014Y850D01*
X1012Y850D01*
X1012Y848D01*
X1010Y848D01*
X1010Y846D01*
X1008Y846D01*
X1008Y844D01*
X1006Y844D01*
X1006Y824D01*
X1010Y824D01*
X1010Y822D01*
X1012Y822D01*
X1012Y820D01*
X1014Y820D01*
X1014Y818D01*
X1016Y818D01*
X1016Y816D01*
X1018Y816D01*
X1018Y814D01*
X1020Y814D01*
X1020Y810D01*
X1022Y810D01*
X1022Y808D01*
X1024Y808D01*
X1024Y804D01*
X1026Y804D01*
X1026Y800D01*
X1028Y800D01*
X1028Y794D01*
X1030Y794D01*
X1030Y776D01*
X1028Y776D01*
X1028Y770D01*
X1026Y770D01*
X1026Y766D01*
X1024Y766D01*
X1024Y762D01*
X1022Y762D01*
X1022Y758D01*
X1020Y758D01*
X1020Y756D01*
X1018Y756D01*
X1018Y754D01*
X1016Y754D01*
X1016Y752D01*
X1014Y752D01*
X1014Y750D01*
X1012Y750D01*
X1012Y748D01*
X1010Y748D01*
X1010Y746D01*
X1008Y746D01*
X1008Y744D01*
X1006Y744D01*
X1006Y724D01*
X1010Y724D01*
X1010Y722D01*
X1012Y722D01*
X1012Y720D01*
X1014Y720D01*
X1014Y718D01*
X1016Y718D01*
X1016Y716D01*
X1018Y716D01*
X1018Y714D01*
X1020Y714D01*
X1020Y710D01*
X1022Y710D01*
X1022Y708D01*
X1024Y708D01*
X1024Y704D01*
X1026Y704D01*
X1026Y700D01*
X1028Y700D01*
X1028Y694D01*
X1030Y694D01*
X1030Y676D01*
X1028Y676D01*
X1028Y670D01*
X1026Y670D01*
X1026Y666D01*
X1024Y666D01*
X1024Y662D01*
X1022Y662D01*
X1022Y658D01*
X1020Y658D01*
X1020Y656D01*
X1018Y656D01*
X1018Y654D01*
X1016Y654D01*
X1016Y652D01*
X1014Y652D01*
X1014Y650D01*
X1012Y650D01*
X1012Y648D01*
X1010Y648D01*
X1010Y646D01*
X1008Y646D01*
X1008Y644D01*
X1006Y644D01*
X1006Y624D01*
X1010Y624D01*
X1010Y622D01*
X1012Y622D01*
X1012Y620D01*
X1014Y620D01*
X1014Y618D01*
X1016Y618D01*
X1016Y616D01*
X1018Y616D01*
X1018Y614D01*
X1020Y614D01*
X1020Y610D01*
X1022Y610D01*
X1022Y608D01*
X1024Y608D01*
X1024Y604D01*
X1026Y604D01*
X1026Y600D01*
X1028Y600D01*
X1028Y594D01*
X1030Y594D01*
X1030Y576D01*
X1028Y576D01*
X1028Y570D01*
X1026Y570D01*
X1026Y566D01*
X1024Y566D01*
X1024Y562D01*
X1022Y562D01*
X1022Y558D01*
X1020Y558D01*
X1020Y556D01*
X1018Y556D01*
X1018Y554D01*
X1016Y554D01*
X1016Y552D01*
X1014Y552D01*
X1014Y550D01*
X1012Y550D01*
X1012Y548D01*
X1010Y548D01*
X1010Y546D01*
X1008Y546D01*
X1008Y544D01*
X1004Y544D01*
X1004Y542D01*
X1000Y542D01*
X1000Y540D01*
X996Y540D01*
X996Y538D01*
X992Y538D01*
X992Y536D01*
X1088Y536D01*
X1088Y1818D01*
X40Y1818D01*
G37*
D02*
G36*
X40Y1734D02*
X40Y1334D01*
X288Y1334D01*
X288Y1332D01*
X294Y1332D01*
X294Y1330D01*
X300Y1330D01*
X300Y1328D01*
X304Y1328D01*
X304Y1326D01*
X306Y1326D01*
X306Y1324D01*
X310Y1324D01*
X310Y1322D01*
X312Y1322D01*
X312Y1320D01*
X314Y1320D01*
X314Y1318D01*
X316Y1318D01*
X316Y1316D01*
X318Y1316D01*
X318Y1314D01*
X320Y1314D01*
X320Y1310D01*
X342Y1310D01*
X342Y1312D01*
X344Y1312D01*
X344Y1316D01*
X346Y1316D01*
X346Y1318D01*
X348Y1318D01*
X348Y1320D01*
X350Y1320D01*
X350Y1322D01*
X354Y1322D01*
X354Y1324D01*
X356Y1324D01*
X356Y1344D01*
X354Y1344D01*
X354Y1346D01*
X352Y1346D01*
X352Y1348D01*
X350Y1348D01*
X350Y1350D01*
X348Y1350D01*
X348Y1352D01*
X346Y1352D01*
X346Y1354D01*
X344Y1354D01*
X344Y1356D01*
X342Y1356D01*
X342Y1358D01*
X340Y1358D01*
X340Y1362D01*
X338Y1362D01*
X338Y1366D01*
X336Y1366D01*
X336Y1370D01*
X334Y1370D01*
X334Y1376D01*
X332Y1376D01*
X332Y1392D01*
X334Y1392D01*
X334Y1398D01*
X336Y1398D01*
X336Y1404D01*
X338Y1404D01*
X338Y1408D01*
X340Y1408D01*
X340Y1410D01*
X342Y1410D01*
X342Y1412D01*
X344Y1412D01*
X344Y1416D01*
X346Y1416D01*
X346Y1418D01*
X348Y1418D01*
X348Y1420D01*
X350Y1420D01*
X350Y1422D01*
X354Y1422D01*
X354Y1424D01*
X356Y1424D01*
X356Y1444D01*
X354Y1444D01*
X354Y1446D01*
X352Y1446D01*
X352Y1448D01*
X350Y1448D01*
X350Y1450D01*
X348Y1450D01*
X348Y1452D01*
X346Y1452D01*
X346Y1454D01*
X344Y1454D01*
X344Y1456D01*
X342Y1456D01*
X342Y1458D01*
X340Y1458D01*
X340Y1462D01*
X338Y1462D01*
X338Y1466D01*
X336Y1466D01*
X336Y1470D01*
X334Y1470D01*
X334Y1476D01*
X332Y1476D01*
X332Y1492D01*
X334Y1492D01*
X334Y1498D01*
X336Y1498D01*
X336Y1504D01*
X338Y1504D01*
X338Y1508D01*
X340Y1508D01*
X340Y1510D01*
X342Y1510D01*
X342Y1512D01*
X344Y1512D01*
X344Y1516D01*
X346Y1516D01*
X346Y1518D01*
X348Y1518D01*
X348Y1520D01*
X350Y1520D01*
X350Y1522D01*
X354Y1522D01*
X354Y1524D01*
X356Y1524D01*
X356Y1544D01*
X354Y1544D01*
X354Y1546D01*
X352Y1546D01*
X352Y1548D01*
X350Y1548D01*
X350Y1550D01*
X348Y1550D01*
X348Y1552D01*
X346Y1552D01*
X346Y1554D01*
X344Y1554D01*
X344Y1556D01*
X342Y1556D01*
X342Y1558D01*
X340Y1558D01*
X340Y1562D01*
X338Y1562D01*
X338Y1566D01*
X336Y1566D01*
X336Y1570D01*
X334Y1570D01*
X334Y1576D01*
X332Y1576D01*
X332Y1592D01*
X334Y1592D01*
X334Y1598D01*
X336Y1598D01*
X336Y1604D01*
X338Y1604D01*
X338Y1608D01*
X340Y1608D01*
X340Y1610D01*
X342Y1610D01*
X342Y1612D01*
X344Y1612D01*
X344Y1616D01*
X346Y1616D01*
X346Y1618D01*
X348Y1618D01*
X348Y1620D01*
X350Y1620D01*
X350Y1622D01*
X354Y1622D01*
X354Y1624D01*
X356Y1624D01*
X356Y1644D01*
X354Y1644D01*
X354Y1646D01*
X352Y1646D01*
X352Y1648D01*
X350Y1648D01*
X350Y1650D01*
X348Y1650D01*
X348Y1652D01*
X346Y1652D01*
X346Y1654D01*
X344Y1654D01*
X344Y1656D01*
X342Y1656D01*
X342Y1658D01*
X340Y1658D01*
X340Y1662D01*
X338Y1662D01*
X338Y1666D01*
X336Y1666D01*
X336Y1670D01*
X334Y1670D01*
X334Y1676D01*
X332Y1676D01*
X332Y1692D01*
X334Y1692D01*
X334Y1698D01*
X336Y1698D01*
X336Y1704D01*
X338Y1704D01*
X338Y1708D01*
X340Y1708D01*
X340Y1710D01*
X342Y1710D01*
X342Y1712D01*
X344Y1712D01*
X344Y1716D01*
X346Y1716D01*
X346Y1718D01*
X348Y1718D01*
X348Y1720D01*
X350Y1720D01*
X350Y1722D01*
X354Y1722D01*
X354Y1724D01*
X356Y1724D01*
X356Y1726D01*
X360Y1726D01*
X360Y1728D01*
X362Y1728D01*
X362Y1730D01*
X368Y1730D01*
X368Y1732D01*
X374Y1732D01*
X374Y1734D01*
X40Y1734D01*
G37*
D02*
G36*
X388Y1734D02*
X388Y1732D01*
X394Y1732D01*
X394Y1730D01*
X400Y1730D01*
X400Y1728D01*
X404Y1728D01*
X404Y1726D01*
X406Y1726D01*
X406Y1724D01*
X410Y1724D01*
X410Y1722D01*
X412Y1722D01*
X412Y1720D01*
X414Y1720D01*
X414Y1718D01*
X416Y1718D01*
X416Y1716D01*
X418Y1716D01*
X418Y1714D01*
X420Y1714D01*
X420Y1710D01*
X422Y1710D01*
X422Y1708D01*
X424Y1708D01*
X424Y1704D01*
X426Y1704D01*
X426Y1700D01*
X428Y1700D01*
X428Y1694D01*
X430Y1694D01*
X430Y1676D01*
X428Y1676D01*
X428Y1670D01*
X426Y1670D01*
X426Y1666D01*
X424Y1666D01*
X424Y1662D01*
X422Y1662D01*
X422Y1658D01*
X420Y1658D01*
X420Y1656D01*
X418Y1656D01*
X418Y1654D01*
X416Y1654D01*
X416Y1652D01*
X414Y1652D01*
X414Y1650D01*
X412Y1650D01*
X412Y1648D01*
X410Y1648D01*
X410Y1646D01*
X408Y1646D01*
X408Y1644D01*
X406Y1644D01*
X406Y1624D01*
X410Y1624D01*
X410Y1622D01*
X412Y1622D01*
X412Y1620D01*
X414Y1620D01*
X414Y1618D01*
X416Y1618D01*
X416Y1616D01*
X418Y1616D01*
X418Y1614D01*
X420Y1614D01*
X420Y1610D01*
X422Y1610D01*
X422Y1608D01*
X482Y1608D01*
X482Y1606D01*
X490Y1606D01*
X490Y1604D01*
X494Y1604D01*
X494Y1602D01*
X496Y1602D01*
X496Y1600D01*
X498Y1600D01*
X498Y1598D01*
X500Y1598D01*
X500Y1596D01*
X502Y1596D01*
X502Y1590D01*
X504Y1590D01*
X504Y1554D01*
X790Y1554D01*
X790Y1552D01*
X796Y1552D01*
X796Y1550D01*
X800Y1550D01*
X800Y1548D01*
X804Y1548D01*
X804Y1546D01*
X806Y1546D01*
X806Y1544D01*
X808Y1544D01*
X808Y1542D01*
X810Y1542D01*
X810Y1540D01*
X812Y1540D01*
X812Y1538D01*
X814Y1538D01*
X814Y1534D01*
X816Y1534D01*
X816Y1530D01*
X818Y1530D01*
X818Y1526D01*
X820Y1526D01*
X820Y1516D01*
X822Y1516D01*
X822Y1452D01*
X820Y1452D01*
X820Y1444D01*
X818Y1444D01*
X818Y1438D01*
X816Y1438D01*
X816Y1434D01*
X814Y1434D01*
X814Y1432D01*
X812Y1432D01*
X812Y1430D01*
X810Y1430D01*
X810Y1428D01*
X808Y1428D01*
X808Y1426D01*
X806Y1426D01*
X806Y1424D01*
X804Y1424D01*
X804Y1422D01*
X802Y1422D01*
X802Y1420D01*
X798Y1420D01*
X798Y1418D01*
X794Y1418D01*
X794Y1416D01*
X786Y1416D01*
X786Y1414D01*
X944Y1414D01*
X944Y1416D01*
X946Y1416D01*
X946Y1418D01*
X948Y1418D01*
X948Y1420D01*
X950Y1420D01*
X950Y1422D01*
X954Y1422D01*
X954Y1424D01*
X956Y1424D01*
X956Y1444D01*
X954Y1444D01*
X954Y1446D01*
X952Y1446D01*
X952Y1448D01*
X950Y1448D01*
X950Y1450D01*
X948Y1450D01*
X948Y1452D01*
X946Y1452D01*
X946Y1454D01*
X944Y1454D01*
X944Y1456D01*
X942Y1456D01*
X942Y1458D01*
X940Y1458D01*
X940Y1462D01*
X938Y1462D01*
X938Y1466D01*
X936Y1466D01*
X936Y1470D01*
X934Y1470D01*
X934Y1476D01*
X932Y1476D01*
X932Y1492D01*
X934Y1492D01*
X934Y1498D01*
X936Y1498D01*
X936Y1504D01*
X938Y1504D01*
X938Y1508D01*
X940Y1508D01*
X940Y1510D01*
X942Y1510D01*
X942Y1512D01*
X944Y1512D01*
X944Y1516D01*
X946Y1516D01*
X946Y1518D01*
X948Y1518D01*
X948Y1520D01*
X950Y1520D01*
X950Y1522D01*
X954Y1522D01*
X954Y1524D01*
X956Y1524D01*
X956Y1544D01*
X954Y1544D01*
X954Y1546D01*
X952Y1546D01*
X952Y1548D01*
X950Y1548D01*
X950Y1550D01*
X948Y1550D01*
X948Y1552D01*
X946Y1552D01*
X946Y1554D01*
X944Y1554D01*
X944Y1556D01*
X942Y1556D01*
X942Y1558D01*
X940Y1558D01*
X940Y1562D01*
X938Y1562D01*
X938Y1566D01*
X936Y1566D01*
X936Y1570D01*
X934Y1570D01*
X934Y1576D01*
X932Y1576D01*
X932Y1592D01*
X934Y1592D01*
X934Y1598D01*
X936Y1598D01*
X936Y1604D01*
X938Y1604D01*
X938Y1608D01*
X940Y1608D01*
X940Y1610D01*
X942Y1610D01*
X942Y1612D01*
X944Y1612D01*
X944Y1616D01*
X946Y1616D01*
X946Y1618D01*
X948Y1618D01*
X948Y1620D01*
X950Y1620D01*
X950Y1622D01*
X954Y1622D01*
X954Y1624D01*
X956Y1624D01*
X956Y1644D01*
X954Y1644D01*
X954Y1646D01*
X952Y1646D01*
X952Y1648D01*
X950Y1648D01*
X950Y1650D01*
X948Y1650D01*
X948Y1652D01*
X946Y1652D01*
X946Y1654D01*
X944Y1654D01*
X944Y1656D01*
X942Y1656D01*
X942Y1658D01*
X940Y1658D01*
X940Y1662D01*
X938Y1662D01*
X938Y1666D01*
X936Y1666D01*
X936Y1670D01*
X934Y1670D01*
X934Y1676D01*
X932Y1676D01*
X932Y1692D01*
X934Y1692D01*
X934Y1698D01*
X936Y1698D01*
X936Y1704D01*
X938Y1704D01*
X938Y1708D01*
X940Y1708D01*
X940Y1710D01*
X942Y1710D01*
X942Y1712D01*
X944Y1712D01*
X944Y1716D01*
X946Y1716D01*
X946Y1718D01*
X948Y1718D01*
X948Y1720D01*
X950Y1720D01*
X950Y1722D01*
X954Y1722D01*
X954Y1724D01*
X956Y1724D01*
X956Y1726D01*
X960Y1726D01*
X960Y1728D01*
X962Y1728D01*
X962Y1730D01*
X968Y1730D01*
X968Y1732D01*
X974Y1732D01*
X974Y1734D01*
X388Y1734D01*
G37*
D02*
G36*
X424Y1608D02*
X424Y1606D01*
X466Y1606D01*
X466Y1608D01*
X424Y1608D01*
G37*
D02*
G36*
X504Y1554D02*
X504Y1414D01*
X576Y1414D01*
X576Y1416D01*
X568Y1416D01*
X568Y1418D01*
X564Y1418D01*
X564Y1420D01*
X560Y1420D01*
X560Y1422D01*
X558Y1422D01*
X558Y1424D01*
X556Y1424D01*
X556Y1426D01*
X554Y1426D01*
X554Y1428D01*
X552Y1428D01*
X552Y1430D01*
X550Y1430D01*
X550Y1432D01*
X548Y1432D01*
X548Y1436D01*
X546Y1436D01*
X546Y1438D01*
X544Y1438D01*
X544Y1444D01*
X542Y1444D01*
X542Y1526D01*
X544Y1526D01*
X544Y1530D01*
X546Y1530D01*
X546Y1534D01*
X548Y1534D01*
X548Y1538D01*
X550Y1538D01*
X550Y1540D01*
X552Y1540D01*
X552Y1542D01*
X554Y1542D01*
X554Y1544D01*
X556Y1544D01*
X556Y1546D01*
X558Y1546D01*
X558Y1548D01*
X562Y1548D01*
X562Y1550D01*
X566Y1550D01*
X566Y1552D01*
X572Y1552D01*
X572Y1554D01*
X504Y1554D01*
G37*
D02*
G36*
X590Y1554D02*
X590Y1552D01*
X596Y1552D01*
X596Y1550D01*
X600Y1550D01*
X600Y1548D01*
X604Y1548D01*
X604Y1546D01*
X606Y1546D01*
X606Y1544D01*
X608Y1544D01*
X608Y1542D01*
X610Y1542D01*
X610Y1540D01*
X612Y1540D01*
X612Y1538D01*
X614Y1538D01*
X614Y1534D01*
X616Y1534D01*
X616Y1530D01*
X618Y1530D01*
X618Y1526D01*
X620Y1526D01*
X620Y1516D01*
X622Y1516D01*
X622Y1452D01*
X620Y1452D01*
X620Y1444D01*
X618Y1444D01*
X618Y1438D01*
X616Y1438D01*
X616Y1434D01*
X614Y1434D01*
X614Y1432D01*
X612Y1432D01*
X612Y1430D01*
X610Y1430D01*
X610Y1428D01*
X608Y1428D01*
X608Y1426D01*
X606Y1426D01*
X606Y1424D01*
X604Y1424D01*
X604Y1422D01*
X602Y1422D01*
X602Y1420D01*
X598Y1420D01*
X598Y1418D01*
X594Y1418D01*
X594Y1416D01*
X586Y1416D01*
X586Y1414D01*
X660Y1414D01*
X660Y1422D01*
X658Y1422D01*
X658Y1424D01*
X656Y1424D01*
X656Y1426D01*
X654Y1426D01*
X654Y1428D01*
X652Y1428D01*
X652Y1430D01*
X650Y1430D01*
X650Y1432D01*
X648Y1432D01*
X648Y1436D01*
X646Y1436D01*
X646Y1438D01*
X644Y1438D01*
X644Y1444D01*
X642Y1444D01*
X642Y1526D01*
X644Y1526D01*
X644Y1530D01*
X646Y1530D01*
X646Y1534D01*
X648Y1534D01*
X648Y1538D01*
X650Y1538D01*
X650Y1540D01*
X652Y1540D01*
X652Y1542D01*
X654Y1542D01*
X654Y1544D01*
X656Y1544D01*
X656Y1546D01*
X658Y1546D01*
X658Y1548D01*
X662Y1548D01*
X662Y1550D01*
X666Y1550D01*
X666Y1552D01*
X672Y1552D01*
X672Y1554D01*
X590Y1554D01*
G37*
D02*
G36*
X690Y1554D02*
X690Y1552D01*
X696Y1552D01*
X696Y1550D01*
X700Y1550D01*
X700Y1548D01*
X704Y1548D01*
X704Y1546D01*
X706Y1546D01*
X706Y1544D01*
X708Y1544D01*
X708Y1542D01*
X710Y1542D01*
X710Y1540D01*
X712Y1540D01*
X712Y1538D01*
X714Y1538D01*
X714Y1534D01*
X716Y1534D01*
X716Y1530D01*
X718Y1530D01*
X718Y1526D01*
X720Y1526D01*
X720Y1516D01*
X722Y1516D01*
X722Y1452D01*
X720Y1452D01*
X720Y1444D01*
X718Y1444D01*
X718Y1438D01*
X716Y1438D01*
X716Y1434D01*
X714Y1434D01*
X714Y1432D01*
X712Y1432D01*
X712Y1430D01*
X710Y1430D01*
X710Y1428D01*
X708Y1428D01*
X708Y1426D01*
X706Y1426D01*
X706Y1424D01*
X704Y1424D01*
X704Y1414D01*
X776Y1414D01*
X776Y1416D01*
X768Y1416D01*
X768Y1418D01*
X764Y1418D01*
X764Y1420D01*
X760Y1420D01*
X760Y1422D01*
X758Y1422D01*
X758Y1424D01*
X756Y1424D01*
X756Y1426D01*
X754Y1426D01*
X754Y1428D01*
X752Y1428D01*
X752Y1430D01*
X750Y1430D01*
X750Y1432D01*
X748Y1432D01*
X748Y1436D01*
X746Y1436D01*
X746Y1438D01*
X744Y1438D01*
X744Y1444D01*
X742Y1444D01*
X742Y1526D01*
X744Y1526D01*
X744Y1530D01*
X746Y1530D01*
X746Y1534D01*
X748Y1534D01*
X748Y1538D01*
X750Y1538D01*
X750Y1540D01*
X752Y1540D01*
X752Y1542D01*
X754Y1542D01*
X754Y1544D01*
X756Y1544D01*
X756Y1546D01*
X758Y1546D01*
X758Y1548D01*
X762Y1548D01*
X762Y1550D01*
X766Y1550D01*
X766Y1552D01*
X772Y1552D01*
X772Y1554D01*
X690Y1554D01*
G37*
D02*
G36*
X504Y1414D02*
X504Y1412D01*
X660Y1412D01*
X660Y1414D01*
X504Y1414D01*
G37*
D02*
G36*
X504Y1414D02*
X504Y1412D01*
X660Y1412D01*
X660Y1414D01*
X504Y1414D01*
G37*
D02*
G36*
X704Y1414D02*
X704Y1412D01*
X944Y1412D01*
X944Y1414D01*
X704Y1414D01*
G37*
D02*
G36*
X704Y1414D02*
X704Y1412D01*
X944Y1412D01*
X944Y1414D01*
X704Y1414D01*
G37*
D02*
G36*
X504Y1412D02*
X504Y970D01*
X690Y970D01*
X690Y968D01*
X700Y968D01*
X700Y966D01*
X706Y966D01*
X706Y964D01*
X710Y964D01*
X710Y962D01*
X714Y962D01*
X714Y960D01*
X718Y960D01*
X718Y958D01*
X722Y958D01*
X722Y956D01*
X724Y956D01*
X724Y954D01*
X726Y954D01*
X726Y952D01*
X730Y952D01*
X730Y950D01*
X732Y950D01*
X732Y948D01*
X734Y948D01*
X734Y946D01*
X736Y946D01*
X736Y944D01*
X738Y944D01*
X738Y942D01*
X740Y942D01*
X740Y938D01*
X742Y938D01*
X742Y936D01*
X744Y936D01*
X744Y932D01*
X746Y932D01*
X746Y930D01*
X748Y930D01*
X748Y926D01*
X750Y926D01*
X750Y920D01*
X752Y920D01*
X752Y914D01*
X754Y914D01*
X754Y906D01*
X756Y906D01*
X756Y882D01*
X754Y882D01*
X754Y874D01*
X752Y874D01*
X752Y868D01*
X750Y868D01*
X750Y864D01*
X748Y864D01*
X748Y860D01*
X746Y860D01*
X746Y856D01*
X744Y856D01*
X744Y854D01*
X742Y854D01*
X742Y850D01*
X740Y850D01*
X740Y848D01*
X738Y848D01*
X738Y846D01*
X736Y846D01*
X736Y844D01*
X734Y844D01*
X734Y842D01*
X732Y842D01*
X732Y840D01*
X730Y840D01*
X730Y838D01*
X728Y838D01*
X728Y836D01*
X726Y836D01*
X726Y834D01*
X722Y834D01*
X722Y832D01*
X720Y832D01*
X720Y830D01*
X716Y830D01*
X716Y828D01*
X712Y828D01*
X712Y826D01*
X708Y826D01*
X708Y824D01*
X702Y824D01*
X702Y822D01*
X694Y822D01*
X694Y820D01*
X860Y820D01*
X860Y1164D01*
X674Y1164D01*
X674Y1166D01*
X670Y1166D01*
X670Y1168D01*
X666Y1168D01*
X666Y1170D01*
X664Y1170D01*
X664Y1174D01*
X662Y1174D01*
X662Y1178D01*
X660Y1178D01*
X660Y1412D01*
X504Y1412D01*
G37*
D02*
G36*
X704Y1412D02*
X704Y1208D01*
X884Y1208D01*
X884Y1206D01*
X892Y1206D01*
X892Y1204D01*
X894Y1204D01*
X894Y1202D01*
X896Y1202D01*
X896Y1200D01*
X898Y1200D01*
X898Y1198D01*
X900Y1198D01*
X900Y1196D01*
X902Y1196D01*
X902Y1190D01*
X904Y1190D01*
X904Y536D01*
X972Y536D01*
X972Y538D01*
X966Y538D01*
X966Y540D01*
X962Y540D01*
X962Y542D01*
X958Y542D01*
X958Y544D01*
X954Y544D01*
X954Y546D01*
X952Y546D01*
X952Y548D01*
X950Y548D01*
X950Y550D01*
X948Y550D01*
X948Y552D01*
X946Y552D01*
X946Y554D01*
X944Y554D01*
X944Y556D01*
X942Y556D01*
X942Y558D01*
X940Y558D01*
X940Y562D01*
X938Y562D01*
X938Y566D01*
X936Y566D01*
X936Y570D01*
X934Y570D01*
X934Y576D01*
X932Y576D01*
X932Y592D01*
X934Y592D01*
X934Y598D01*
X936Y598D01*
X936Y604D01*
X938Y604D01*
X938Y608D01*
X940Y608D01*
X940Y610D01*
X942Y610D01*
X942Y612D01*
X944Y612D01*
X944Y616D01*
X946Y616D01*
X946Y618D01*
X948Y618D01*
X948Y620D01*
X950Y620D01*
X950Y622D01*
X954Y622D01*
X954Y624D01*
X956Y624D01*
X956Y644D01*
X954Y644D01*
X954Y646D01*
X952Y646D01*
X952Y648D01*
X950Y648D01*
X950Y650D01*
X948Y650D01*
X948Y652D01*
X946Y652D01*
X946Y654D01*
X944Y654D01*
X944Y656D01*
X942Y656D01*
X942Y658D01*
X940Y658D01*
X940Y662D01*
X938Y662D01*
X938Y666D01*
X936Y666D01*
X936Y670D01*
X934Y670D01*
X934Y676D01*
X932Y676D01*
X932Y692D01*
X934Y692D01*
X934Y698D01*
X936Y698D01*
X936Y704D01*
X938Y704D01*
X938Y708D01*
X940Y708D01*
X940Y710D01*
X942Y710D01*
X942Y712D01*
X944Y712D01*
X944Y716D01*
X946Y716D01*
X946Y718D01*
X948Y718D01*
X948Y720D01*
X950Y720D01*
X950Y722D01*
X954Y722D01*
X954Y724D01*
X956Y724D01*
X956Y744D01*
X954Y744D01*
X954Y746D01*
X952Y746D01*
X952Y748D01*
X950Y748D01*
X950Y750D01*
X948Y750D01*
X948Y752D01*
X946Y752D01*
X946Y754D01*
X944Y754D01*
X944Y756D01*
X942Y756D01*
X942Y758D01*
X940Y758D01*
X940Y762D01*
X938Y762D01*
X938Y766D01*
X936Y766D01*
X936Y770D01*
X934Y770D01*
X934Y776D01*
X932Y776D01*
X932Y792D01*
X934Y792D01*
X934Y798D01*
X936Y798D01*
X936Y804D01*
X938Y804D01*
X938Y808D01*
X940Y808D01*
X940Y810D01*
X942Y810D01*
X942Y812D01*
X944Y812D01*
X944Y816D01*
X946Y816D01*
X946Y818D01*
X948Y818D01*
X948Y820D01*
X950Y820D01*
X950Y822D01*
X954Y822D01*
X954Y824D01*
X956Y824D01*
X956Y844D01*
X954Y844D01*
X954Y846D01*
X952Y846D01*
X952Y848D01*
X950Y848D01*
X950Y850D01*
X948Y850D01*
X948Y852D01*
X946Y852D01*
X946Y854D01*
X944Y854D01*
X944Y856D01*
X942Y856D01*
X942Y858D01*
X940Y858D01*
X940Y862D01*
X938Y862D01*
X938Y866D01*
X936Y866D01*
X936Y870D01*
X934Y870D01*
X934Y876D01*
X932Y876D01*
X932Y892D01*
X934Y892D01*
X934Y898D01*
X936Y898D01*
X936Y904D01*
X938Y904D01*
X938Y908D01*
X940Y908D01*
X940Y910D01*
X942Y910D01*
X942Y912D01*
X944Y912D01*
X944Y916D01*
X946Y916D01*
X946Y918D01*
X948Y918D01*
X948Y920D01*
X950Y920D01*
X950Y922D01*
X954Y922D01*
X954Y924D01*
X956Y924D01*
X956Y944D01*
X954Y944D01*
X954Y946D01*
X952Y946D01*
X952Y948D01*
X950Y948D01*
X950Y950D01*
X948Y950D01*
X948Y952D01*
X946Y952D01*
X946Y954D01*
X944Y954D01*
X944Y956D01*
X942Y956D01*
X942Y958D01*
X940Y958D01*
X940Y962D01*
X938Y962D01*
X938Y966D01*
X936Y966D01*
X936Y970D01*
X934Y970D01*
X934Y976D01*
X932Y976D01*
X932Y992D01*
X934Y992D01*
X934Y998D01*
X936Y998D01*
X936Y1004D01*
X938Y1004D01*
X938Y1008D01*
X940Y1008D01*
X940Y1010D01*
X942Y1010D01*
X942Y1012D01*
X944Y1012D01*
X944Y1016D01*
X946Y1016D01*
X946Y1018D01*
X948Y1018D01*
X948Y1020D01*
X950Y1020D01*
X950Y1022D01*
X954Y1022D01*
X954Y1024D01*
X956Y1024D01*
X956Y1044D01*
X954Y1044D01*
X954Y1046D01*
X952Y1046D01*
X952Y1048D01*
X950Y1048D01*
X950Y1050D01*
X948Y1050D01*
X948Y1052D01*
X946Y1052D01*
X946Y1054D01*
X944Y1054D01*
X944Y1056D01*
X942Y1056D01*
X942Y1058D01*
X940Y1058D01*
X940Y1062D01*
X938Y1062D01*
X938Y1066D01*
X936Y1066D01*
X936Y1070D01*
X934Y1070D01*
X934Y1076D01*
X932Y1076D01*
X932Y1092D01*
X934Y1092D01*
X934Y1098D01*
X936Y1098D01*
X936Y1104D01*
X938Y1104D01*
X938Y1108D01*
X940Y1108D01*
X940Y1110D01*
X942Y1110D01*
X942Y1112D01*
X944Y1112D01*
X944Y1116D01*
X946Y1116D01*
X946Y1118D01*
X948Y1118D01*
X948Y1120D01*
X950Y1120D01*
X950Y1122D01*
X954Y1122D01*
X954Y1124D01*
X956Y1124D01*
X956Y1144D01*
X954Y1144D01*
X954Y1146D01*
X952Y1146D01*
X952Y1148D01*
X950Y1148D01*
X950Y1150D01*
X948Y1150D01*
X948Y1152D01*
X946Y1152D01*
X946Y1154D01*
X944Y1154D01*
X944Y1156D01*
X942Y1156D01*
X942Y1158D01*
X940Y1158D01*
X940Y1162D01*
X938Y1162D01*
X938Y1166D01*
X936Y1166D01*
X936Y1170D01*
X934Y1170D01*
X934Y1176D01*
X932Y1176D01*
X932Y1192D01*
X934Y1192D01*
X934Y1198D01*
X936Y1198D01*
X936Y1204D01*
X938Y1204D01*
X938Y1208D01*
X940Y1208D01*
X940Y1210D01*
X942Y1210D01*
X942Y1212D01*
X944Y1212D01*
X944Y1216D01*
X946Y1216D01*
X946Y1218D01*
X948Y1218D01*
X948Y1220D01*
X950Y1220D01*
X950Y1222D01*
X954Y1222D01*
X954Y1224D01*
X956Y1224D01*
X956Y1244D01*
X954Y1244D01*
X954Y1246D01*
X952Y1246D01*
X952Y1248D01*
X950Y1248D01*
X950Y1250D01*
X948Y1250D01*
X948Y1252D01*
X946Y1252D01*
X946Y1254D01*
X944Y1254D01*
X944Y1256D01*
X942Y1256D01*
X942Y1258D01*
X940Y1258D01*
X940Y1262D01*
X938Y1262D01*
X938Y1266D01*
X936Y1266D01*
X936Y1270D01*
X934Y1270D01*
X934Y1276D01*
X932Y1276D01*
X932Y1292D01*
X934Y1292D01*
X934Y1298D01*
X936Y1298D01*
X936Y1304D01*
X938Y1304D01*
X938Y1308D01*
X940Y1308D01*
X940Y1310D01*
X942Y1310D01*
X942Y1312D01*
X944Y1312D01*
X944Y1316D01*
X946Y1316D01*
X946Y1318D01*
X948Y1318D01*
X948Y1320D01*
X950Y1320D01*
X950Y1322D01*
X954Y1322D01*
X954Y1324D01*
X956Y1324D01*
X956Y1344D01*
X954Y1344D01*
X954Y1346D01*
X952Y1346D01*
X952Y1348D01*
X950Y1348D01*
X950Y1350D01*
X948Y1350D01*
X948Y1352D01*
X946Y1352D01*
X946Y1354D01*
X944Y1354D01*
X944Y1356D01*
X942Y1356D01*
X942Y1358D01*
X940Y1358D01*
X940Y1362D01*
X938Y1362D01*
X938Y1366D01*
X936Y1366D01*
X936Y1370D01*
X934Y1370D01*
X934Y1376D01*
X932Y1376D01*
X932Y1392D01*
X934Y1392D01*
X934Y1398D01*
X936Y1398D01*
X936Y1404D01*
X938Y1404D01*
X938Y1408D01*
X940Y1408D01*
X940Y1410D01*
X942Y1410D01*
X942Y1412D01*
X704Y1412D01*
G37*
D02*
G36*
X40Y1334D02*
X40Y1326D01*
X60Y1326D01*
X60Y1328D01*
X62Y1328D01*
X62Y1330D01*
X68Y1330D01*
X68Y1332D01*
X74Y1332D01*
X74Y1334D01*
X40Y1334D01*
G37*
D02*
G36*
X88Y1334D02*
X88Y1332D01*
X94Y1332D01*
X94Y1330D01*
X100Y1330D01*
X100Y1328D01*
X104Y1328D01*
X104Y1326D01*
X106Y1326D01*
X106Y1324D01*
X110Y1324D01*
X110Y1322D01*
X112Y1322D01*
X112Y1320D01*
X114Y1320D01*
X114Y1318D01*
X116Y1318D01*
X116Y1316D01*
X118Y1316D01*
X118Y1314D01*
X120Y1314D01*
X120Y1310D01*
X142Y1310D01*
X142Y1312D01*
X144Y1312D01*
X144Y1316D01*
X146Y1316D01*
X146Y1318D01*
X148Y1318D01*
X148Y1320D01*
X150Y1320D01*
X150Y1322D01*
X154Y1322D01*
X154Y1324D01*
X156Y1324D01*
X156Y1326D01*
X160Y1326D01*
X160Y1328D01*
X162Y1328D01*
X162Y1330D01*
X168Y1330D01*
X168Y1332D01*
X174Y1332D01*
X174Y1334D01*
X88Y1334D01*
G37*
D02*
G36*
X188Y1334D02*
X188Y1332D01*
X194Y1332D01*
X194Y1330D01*
X200Y1330D01*
X200Y1328D01*
X204Y1328D01*
X204Y1326D01*
X206Y1326D01*
X206Y1324D01*
X210Y1324D01*
X210Y1322D01*
X212Y1322D01*
X212Y1320D01*
X214Y1320D01*
X214Y1318D01*
X216Y1318D01*
X216Y1316D01*
X218Y1316D01*
X218Y1314D01*
X220Y1314D01*
X220Y1310D01*
X242Y1310D01*
X242Y1312D01*
X244Y1312D01*
X244Y1316D01*
X246Y1316D01*
X246Y1318D01*
X248Y1318D01*
X248Y1320D01*
X250Y1320D01*
X250Y1322D01*
X254Y1322D01*
X254Y1324D01*
X256Y1324D01*
X256Y1326D01*
X260Y1326D01*
X260Y1328D01*
X262Y1328D01*
X262Y1330D01*
X268Y1330D01*
X268Y1332D01*
X274Y1332D01*
X274Y1334D01*
X188Y1334D01*
G37*
D02*
G36*
X504Y970D02*
X504Y820D01*
X668Y820D01*
X668Y822D01*
X660Y822D01*
X660Y824D01*
X654Y824D01*
X654Y826D01*
X650Y826D01*
X650Y828D01*
X646Y828D01*
X646Y830D01*
X642Y830D01*
X642Y832D01*
X640Y832D01*
X640Y834D01*
X636Y834D01*
X636Y836D01*
X634Y836D01*
X634Y838D01*
X632Y838D01*
X632Y840D01*
X630Y840D01*
X630Y842D01*
X628Y842D01*
X628Y844D01*
X626Y844D01*
X626Y846D01*
X624Y846D01*
X624Y848D01*
X622Y848D01*
X622Y850D01*
X620Y850D01*
X620Y854D01*
X618Y854D01*
X618Y856D01*
X616Y856D01*
X616Y860D01*
X614Y860D01*
X614Y864D01*
X612Y864D01*
X612Y870D01*
X610Y870D01*
X610Y874D01*
X608Y874D01*
X608Y884D01*
X606Y884D01*
X606Y906D01*
X608Y906D01*
X608Y914D01*
X610Y914D01*
X610Y920D01*
X612Y920D01*
X612Y924D01*
X614Y924D01*
X614Y928D01*
X616Y928D01*
X616Y932D01*
X618Y932D01*
X618Y936D01*
X620Y936D01*
X620Y938D01*
X622Y938D01*
X622Y940D01*
X624Y940D01*
X624Y944D01*
X626Y944D01*
X626Y946D01*
X628Y946D01*
X628Y948D01*
X630Y948D01*
X630Y950D01*
X632Y950D01*
X632Y952D01*
X636Y952D01*
X636Y954D01*
X638Y954D01*
X638Y956D01*
X640Y956D01*
X640Y958D01*
X644Y958D01*
X644Y960D01*
X648Y960D01*
X648Y962D01*
X652Y962D01*
X652Y964D01*
X656Y964D01*
X656Y966D01*
X662Y966D01*
X662Y968D01*
X672Y968D01*
X672Y970D01*
X504Y970D01*
G37*
D02*
G36*
X504Y820D02*
X504Y818D01*
X860Y818D01*
X860Y820D01*
X504Y820D01*
G37*
D02*
G36*
X504Y820D02*
X504Y818D01*
X860Y818D01*
X860Y820D01*
X504Y820D01*
G37*
D02*
G36*
X504Y818D02*
X504Y334D01*
X988Y334D01*
X988Y332D01*
X994Y332D01*
X994Y330D01*
X1000Y330D01*
X1000Y328D01*
X1004Y328D01*
X1004Y326D01*
X1006Y326D01*
X1006Y324D01*
X1010Y324D01*
X1010Y322D01*
X1012Y322D01*
X1012Y320D01*
X1014Y320D01*
X1014Y318D01*
X1016Y318D01*
X1016Y316D01*
X1018Y316D01*
X1018Y314D01*
X1020Y314D01*
X1020Y310D01*
X1022Y310D01*
X1022Y308D01*
X1024Y308D01*
X1024Y304D01*
X1026Y304D01*
X1026Y300D01*
X1028Y300D01*
X1028Y294D01*
X1030Y294D01*
X1030Y276D01*
X1028Y276D01*
X1028Y270D01*
X1026Y270D01*
X1026Y266D01*
X1024Y266D01*
X1024Y262D01*
X1022Y262D01*
X1022Y258D01*
X1020Y258D01*
X1020Y256D01*
X1018Y256D01*
X1018Y254D01*
X1016Y254D01*
X1016Y252D01*
X1014Y252D01*
X1014Y250D01*
X1012Y250D01*
X1012Y248D01*
X1010Y248D01*
X1010Y246D01*
X1008Y246D01*
X1008Y244D01*
X1006Y244D01*
X1006Y224D01*
X1010Y224D01*
X1010Y222D01*
X1012Y222D01*
X1012Y220D01*
X1014Y220D01*
X1014Y218D01*
X1016Y218D01*
X1016Y216D01*
X1018Y216D01*
X1018Y214D01*
X1020Y214D01*
X1020Y210D01*
X1022Y210D01*
X1022Y208D01*
X1060Y208D01*
X1060Y462D01*
X876Y462D01*
X876Y464D01*
X870Y464D01*
X870Y466D01*
X868Y466D01*
X868Y468D01*
X866Y468D01*
X866Y470D01*
X864Y470D01*
X864Y472D01*
X862Y472D01*
X862Y476D01*
X860Y476D01*
X860Y818D01*
X504Y818D01*
G37*
D02*
G36*
X904Y536D02*
X904Y534D01*
X1088Y534D01*
X1088Y536D01*
X904Y536D01*
G37*
D02*
G36*
X904Y536D02*
X904Y534D01*
X1088Y534D01*
X1088Y536D01*
X904Y536D01*
G37*
D02*
G36*
X904Y534D02*
X904Y506D01*
X1088Y506D01*
X1088Y534D01*
X904Y534D01*
G37*
D02*
G36*
X504Y334D02*
X504Y208D01*
X618Y208D01*
X618Y206D01*
X638Y206D01*
X638Y208D01*
X640Y208D01*
X640Y210D01*
X642Y210D01*
X642Y212D01*
X644Y212D01*
X644Y216D01*
X646Y216D01*
X646Y218D01*
X648Y218D01*
X648Y220D01*
X650Y220D01*
X650Y222D01*
X654Y222D01*
X654Y224D01*
X656Y224D01*
X656Y244D01*
X654Y244D01*
X654Y246D01*
X652Y246D01*
X652Y248D01*
X650Y248D01*
X650Y250D01*
X648Y250D01*
X648Y252D01*
X646Y252D01*
X646Y254D01*
X644Y254D01*
X644Y256D01*
X642Y256D01*
X642Y258D01*
X640Y258D01*
X640Y262D01*
X638Y262D01*
X638Y266D01*
X636Y266D01*
X636Y270D01*
X634Y270D01*
X634Y276D01*
X632Y276D01*
X632Y292D01*
X634Y292D01*
X634Y298D01*
X636Y298D01*
X636Y304D01*
X638Y304D01*
X638Y308D01*
X640Y308D01*
X640Y310D01*
X642Y310D01*
X642Y312D01*
X644Y312D01*
X644Y316D01*
X646Y316D01*
X646Y318D01*
X648Y318D01*
X648Y320D01*
X650Y320D01*
X650Y322D01*
X654Y322D01*
X654Y324D01*
X656Y324D01*
X656Y326D01*
X660Y326D01*
X660Y328D01*
X662Y328D01*
X662Y330D01*
X668Y330D01*
X668Y332D01*
X674Y332D01*
X674Y334D01*
X504Y334D01*
G37*
D02*
G36*
X688Y334D02*
X688Y332D01*
X694Y332D01*
X694Y330D01*
X700Y330D01*
X700Y328D01*
X704Y328D01*
X704Y326D01*
X706Y326D01*
X706Y324D01*
X710Y324D01*
X710Y322D01*
X712Y322D01*
X712Y320D01*
X714Y320D01*
X714Y318D01*
X716Y318D01*
X716Y316D01*
X718Y316D01*
X718Y314D01*
X720Y314D01*
X720Y310D01*
X742Y310D01*
X742Y312D01*
X744Y312D01*
X744Y316D01*
X746Y316D01*
X746Y318D01*
X748Y318D01*
X748Y320D01*
X750Y320D01*
X750Y322D01*
X754Y322D01*
X754Y324D01*
X756Y324D01*
X756Y326D01*
X760Y326D01*
X760Y328D01*
X762Y328D01*
X762Y330D01*
X768Y330D01*
X768Y332D01*
X774Y332D01*
X774Y334D01*
X688Y334D01*
G37*
D02*
G36*
X788Y334D02*
X788Y332D01*
X794Y332D01*
X794Y330D01*
X800Y330D01*
X800Y328D01*
X804Y328D01*
X804Y326D01*
X806Y326D01*
X806Y324D01*
X810Y324D01*
X810Y322D01*
X812Y322D01*
X812Y320D01*
X814Y320D01*
X814Y318D01*
X816Y318D01*
X816Y316D01*
X818Y316D01*
X818Y314D01*
X820Y314D01*
X820Y310D01*
X842Y310D01*
X842Y312D01*
X844Y312D01*
X844Y316D01*
X846Y316D01*
X846Y318D01*
X848Y318D01*
X848Y320D01*
X850Y320D01*
X850Y322D01*
X854Y322D01*
X854Y324D01*
X856Y324D01*
X856Y326D01*
X860Y326D01*
X860Y328D01*
X862Y328D01*
X862Y330D01*
X868Y330D01*
X868Y332D01*
X874Y332D01*
X874Y334D01*
X788Y334D01*
G37*
D02*
G36*
X888Y334D02*
X888Y332D01*
X894Y332D01*
X894Y330D01*
X900Y330D01*
X900Y328D01*
X904Y328D01*
X904Y326D01*
X906Y326D01*
X906Y324D01*
X910Y324D01*
X910Y322D01*
X912Y322D01*
X912Y320D01*
X914Y320D01*
X914Y318D01*
X916Y318D01*
X916Y316D01*
X918Y316D01*
X918Y314D01*
X920Y314D01*
X920Y310D01*
X942Y310D01*
X942Y312D01*
X944Y312D01*
X944Y316D01*
X946Y316D01*
X946Y318D01*
X948Y318D01*
X948Y320D01*
X950Y320D01*
X950Y322D01*
X954Y322D01*
X954Y324D01*
X956Y324D01*
X956Y326D01*
X960Y326D01*
X960Y328D01*
X962Y328D01*
X962Y330D01*
X968Y330D01*
X968Y332D01*
X974Y332D01*
X974Y334D01*
X888Y334D01*
G37*
D02*
G36*
X120Y1258D02*
X120Y1256D01*
X118Y1256D01*
X118Y1254D01*
X116Y1254D01*
X116Y1252D01*
X114Y1252D01*
X114Y1250D01*
X112Y1250D01*
X112Y1248D01*
X110Y1248D01*
X110Y1246D01*
X108Y1246D01*
X108Y1244D01*
X106Y1244D01*
X106Y1224D01*
X110Y1224D01*
X110Y1222D01*
X112Y1222D01*
X112Y1220D01*
X114Y1220D01*
X114Y1218D01*
X116Y1218D01*
X116Y1216D01*
X118Y1216D01*
X118Y1214D01*
X120Y1214D01*
X120Y1210D01*
X142Y1210D01*
X142Y1212D01*
X144Y1212D01*
X144Y1216D01*
X146Y1216D01*
X146Y1218D01*
X148Y1218D01*
X148Y1220D01*
X150Y1220D01*
X150Y1222D01*
X154Y1222D01*
X154Y1224D01*
X156Y1224D01*
X156Y1244D01*
X154Y1244D01*
X154Y1246D01*
X152Y1246D01*
X152Y1248D01*
X150Y1248D01*
X150Y1250D01*
X148Y1250D01*
X148Y1252D01*
X146Y1252D01*
X146Y1254D01*
X144Y1254D01*
X144Y1256D01*
X142Y1256D01*
X142Y1258D01*
X120Y1258D01*
G37*
D02*
G36*
X220Y1258D02*
X220Y1256D01*
X218Y1256D01*
X218Y1254D01*
X216Y1254D01*
X216Y1252D01*
X214Y1252D01*
X214Y1250D01*
X212Y1250D01*
X212Y1248D01*
X210Y1248D01*
X210Y1246D01*
X208Y1246D01*
X208Y1244D01*
X206Y1244D01*
X206Y1224D01*
X210Y1224D01*
X210Y1222D01*
X212Y1222D01*
X212Y1220D01*
X214Y1220D01*
X214Y1218D01*
X216Y1218D01*
X216Y1216D01*
X218Y1216D01*
X218Y1214D01*
X220Y1214D01*
X220Y1210D01*
X242Y1210D01*
X242Y1212D01*
X244Y1212D01*
X244Y1216D01*
X246Y1216D01*
X246Y1218D01*
X248Y1218D01*
X248Y1220D01*
X250Y1220D01*
X250Y1222D01*
X254Y1222D01*
X254Y1224D01*
X256Y1224D01*
X256Y1244D01*
X254Y1244D01*
X254Y1246D01*
X252Y1246D01*
X252Y1248D01*
X250Y1248D01*
X250Y1250D01*
X248Y1250D01*
X248Y1252D01*
X246Y1252D01*
X246Y1254D01*
X244Y1254D01*
X244Y1256D01*
X242Y1256D01*
X242Y1258D01*
X220Y1258D01*
G37*
D02*
G36*
X320Y1258D02*
X320Y1256D01*
X318Y1256D01*
X318Y1254D01*
X316Y1254D01*
X316Y1252D01*
X314Y1252D01*
X314Y1250D01*
X312Y1250D01*
X312Y1248D01*
X310Y1248D01*
X310Y1246D01*
X308Y1246D01*
X308Y1244D01*
X306Y1244D01*
X306Y1224D01*
X310Y1224D01*
X310Y1222D01*
X312Y1222D01*
X312Y1220D01*
X314Y1220D01*
X314Y1218D01*
X316Y1218D01*
X316Y1216D01*
X318Y1216D01*
X318Y1214D01*
X320Y1214D01*
X320Y1210D01*
X342Y1210D01*
X342Y1212D01*
X344Y1212D01*
X344Y1216D01*
X346Y1216D01*
X346Y1218D01*
X348Y1218D01*
X348Y1220D01*
X350Y1220D01*
X350Y1222D01*
X354Y1222D01*
X354Y1224D01*
X356Y1224D01*
X356Y1244D01*
X354Y1244D01*
X354Y1246D01*
X352Y1246D01*
X352Y1248D01*
X350Y1248D01*
X350Y1250D01*
X348Y1250D01*
X348Y1252D01*
X346Y1252D01*
X346Y1254D01*
X344Y1254D01*
X344Y1256D01*
X342Y1256D01*
X342Y1258D01*
X320Y1258D01*
G37*
D02*
G36*
X120Y1158D02*
X120Y1156D01*
X118Y1156D01*
X118Y1154D01*
X116Y1154D01*
X116Y1152D01*
X114Y1152D01*
X114Y1150D01*
X112Y1150D01*
X112Y1148D01*
X110Y1148D01*
X110Y1146D01*
X108Y1146D01*
X108Y1144D01*
X106Y1144D01*
X106Y1124D01*
X110Y1124D01*
X110Y1122D01*
X112Y1122D01*
X112Y1120D01*
X114Y1120D01*
X114Y1118D01*
X116Y1118D01*
X116Y1116D01*
X118Y1116D01*
X118Y1114D01*
X120Y1114D01*
X120Y1110D01*
X142Y1110D01*
X142Y1112D01*
X144Y1112D01*
X144Y1116D01*
X146Y1116D01*
X146Y1118D01*
X148Y1118D01*
X148Y1120D01*
X150Y1120D01*
X150Y1122D01*
X154Y1122D01*
X154Y1124D01*
X156Y1124D01*
X156Y1144D01*
X154Y1144D01*
X154Y1146D01*
X152Y1146D01*
X152Y1148D01*
X150Y1148D01*
X150Y1150D01*
X148Y1150D01*
X148Y1152D01*
X146Y1152D01*
X146Y1154D01*
X144Y1154D01*
X144Y1156D01*
X142Y1156D01*
X142Y1158D01*
X120Y1158D01*
G37*
D02*
G36*
X220Y1158D02*
X220Y1156D01*
X218Y1156D01*
X218Y1154D01*
X216Y1154D01*
X216Y1152D01*
X214Y1152D01*
X214Y1150D01*
X212Y1150D01*
X212Y1148D01*
X210Y1148D01*
X210Y1146D01*
X208Y1146D01*
X208Y1144D01*
X206Y1144D01*
X206Y1124D01*
X210Y1124D01*
X210Y1122D01*
X212Y1122D01*
X212Y1120D01*
X214Y1120D01*
X214Y1118D01*
X216Y1118D01*
X216Y1116D01*
X218Y1116D01*
X218Y1114D01*
X220Y1114D01*
X220Y1110D01*
X242Y1110D01*
X242Y1112D01*
X244Y1112D01*
X244Y1116D01*
X246Y1116D01*
X246Y1118D01*
X248Y1118D01*
X248Y1120D01*
X250Y1120D01*
X250Y1122D01*
X254Y1122D01*
X254Y1124D01*
X256Y1124D01*
X256Y1144D01*
X254Y1144D01*
X254Y1146D01*
X252Y1146D01*
X252Y1148D01*
X250Y1148D01*
X250Y1150D01*
X248Y1150D01*
X248Y1152D01*
X246Y1152D01*
X246Y1154D01*
X244Y1154D01*
X244Y1156D01*
X242Y1156D01*
X242Y1158D01*
X220Y1158D01*
G37*
D02*
G36*
X320Y1158D02*
X320Y1156D01*
X318Y1156D01*
X318Y1154D01*
X316Y1154D01*
X316Y1152D01*
X314Y1152D01*
X314Y1150D01*
X312Y1150D01*
X312Y1148D01*
X310Y1148D01*
X310Y1146D01*
X308Y1146D01*
X308Y1144D01*
X306Y1144D01*
X306Y1124D01*
X310Y1124D01*
X310Y1122D01*
X312Y1122D01*
X312Y1120D01*
X314Y1120D01*
X314Y1118D01*
X316Y1118D01*
X316Y1116D01*
X318Y1116D01*
X318Y1114D01*
X320Y1114D01*
X320Y1110D01*
X342Y1110D01*
X342Y1112D01*
X344Y1112D01*
X344Y1116D01*
X346Y1116D01*
X346Y1118D01*
X348Y1118D01*
X348Y1120D01*
X350Y1120D01*
X350Y1122D01*
X354Y1122D01*
X354Y1124D01*
X356Y1124D01*
X356Y1144D01*
X354Y1144D01*
X354Y1146D01*
X352Y1146D01*
X352Y1148D01*
X350Y1148D01*
X350Y1150D01*
X348Y1150D01*
X348Y1152D01*
X346Y1152D01*
X346Y1154D01*
X344Y1154D01*
X344Y1156D01*
X342Y1156D01*
X342Y1158D01*
X320Y1158D01*
G37*
D02*
G36*
X120Y1058D02*
X120Y1056D01*
X118Y1056D01*
X118Y1054D01*
X116Y1054D01*
X116Y1052D01*
X114Y1052D01*
X114Y1050D01*
X112Y1050D01*
X112Y1048D01*
X110Y1048D01*
X110Y1046D01*
X108Y1046D01*
X108Y1044D01*
X106Y1044D01*
X106Y1024D01*
X110Y1024D01*
X110Y1022D01*
X112Y1022D01*
X112Y1020D01*
X114Y1020D01*
X114Y1018D01*
X116Y1018D01*
X116Y1016D01*
X118Y1016D01*
X118Y1014D01*
X120Y1014D01*
X120Y1010D01*
X142Y1010D01*
X142Y1012D01*
X144Y1012D01*
X144Y1016D01*
X146Y1016D01*
X146Y1018D01*
X148Y1018D01*
X148Y1020D01*
X150Y1020D01*
X150Y1022D01*
X154Y1022D01*
X154Y1024D01*
X156Y1024D01*
X156Y1044D01*
X154Y1044D01*
X154Y1046D01*
X152Y1046D01*
X152Y1048D01*
X150Y1048D01*
X150Y1050D01*
X148Y1050D01*
X148Y1052D01*
X146Y1052D01*
X146Y1054D01*
X144Y1054D01*
X144Y1056D01*
X142Y1056D01*
X142Y1058D01*
X120Y1058D01*
G37*
D02*
G36*
X220Y1058D02*
X220Y1056D01*
X218Y1056D01*
X218Y1054D01*
X216Y1054D01*
X216Y1052D01*
X214Y1052D01*
X214Y1050D01*
X212Y1050D01*
X212Y1048D01*
X210Y1048D01*
X210Y1046D01*
X208Y1046D01*
X208Y1044D01*
X206Y1044D01*
X206Y1024D01*
X210Y1024D01*
X210Y1022D01*
X212Y1022D01*
X212Y1020D01*
X214Y1020D01*
X214Y1018D01*
X216Y1018D01*
X216Y1016D01*
X218Y1016D01*
X218Y1014D01*
X220Y1014D01*
X220Y1010D01*
X242Y1010D01*
X242Y1012D01*
X244Y1012D01*
X244Y1016D01*
X246Y1016D01*
X246Y1018D01*
X248Y1018D01*
X248Y1020D01*
X250Y1020D01*
X250Y1022D01*
X254Y1022D01*
X254Y1024D01*
X256Y1024D01*
X256Y1044D01*
X254Y1044D01*
X254Y1046D01*
X252Y1046D01*
X252Y1048D01*
X250Y1048D01*
X250Y1050D01*
X248Y1050D01*
X248Y1052D01*
X246Y1052D01*
X246Y1054D01*
X244Y1054D01*
X244Y1056D01*
X242Y1056D01*
X242Y1058D01*
X220Y1058D01*
G37*
D02*
G36*
X320Y1058D02*
X320Y1056D01*
X318Y1056D01*
X318Y1054D01*
X316Y1054D01*
X316Y1052D01*
X314Y1052D01*
X314Y1050D01*
X312Y1050D01*
X312Y1048D01*
X310Y1048D01*
X310Y1046D01*
X308Y1046D01*
X308Y1044D01*
X306Y1044D01*
X306Y1024D01*
X310Y1024D01*
X310Y1022D01*
X312Y1022D01*
X312Y1020D01*
X314Y1020D01*
X314Y1018D01*
X316Y1018D01*
X316Y1016D01*
X318Y1016D01*
X318Y1014D01*
X320Y1014D01*
X320Y1010D01*
X342Y1010D01*
X342Y1012D01*
X344Y1012D01*
X344Y1016D01*
X346Y1016D01*
X346Y1018D01*
X348Y1018D01*
X348Y1020D01*
X350Y1020D01*
X350Y1022D01*
X354Y1022D01*
X354Y1024D01*
X356Y1024D01*
X356Y1044D01*
X354Y1044D01*
X354Y1046D01*
X352Y1046D01*
X352Y1048D01*
X350Y1048D01*
X350Y1050D01*
X348Y1050D01*
X348Y1052D01*
X346Y1052D01*
X346Y1054D01*
X344Y1054D01*
X344Y1056D01*
X342Y1056D01*
X342Y1058D01*
X320Y1058D01*
G37*
D02*
G36*
X120Y958D02*
X120Y956D01*
X118Y956D01*
X118Y954D01*
X116Y954D01*
X116Y952D01*
X114Y952D01*
X114Y950D01*
X112Y950D01*
X112Y948D01*
X110Y948D01*
X110Y946D01*
X108Y946D01*
X108Y944D01*
X106Y944D01*
X106Y924D01*
X110Y924D01*
X110Y922D01*
X112Y922D01*
X112Y920D01*
X114Y920D01*
X114Y918D01*
X116Y918D01*
X116Y916D01*
X118Y916D01*
X118Y914D01*
X120Y914D01*
X120Y910D01*
X142Y910D01*
X142Y912D01*
X144Y912D01*
X144Y916D01*
X146Y916D01*
X146Y918D01*
X148Y918D01*
X148Y920D01*
X150Y920D01*
X150Y922D01*
X154Y922D01*
X154Y924D01*
X156Y924D01*
X156Y944D01*
X154Y944D01*
X154Y946D01*
X152Y946D01*
X152Y948D01*
X150Y948D01*
X150Y950D01*
X148Y950D01*
X148Y952D01*
X146Y952D01*
X146Y954D01*
X144Y954D01*
X144Y956D01*
X142Y956D01*
X142Y958D01*
X120Y958D01*
G37*
D02*
G36*
X220Y958D02*
X220Y956D01*
X218Y956D01*
X218Y954D01*
X216Y954D01*
X216Y952D01*
X214Y952D01*
X214Y950D01*
X212Y950D01*
X212Y948D01*
X210Y948D01*
X210Y946D01*
X208Y946D01*
X208Y944D01*
X206Y944D01*
X206Y924D01*
X210Y924D01*
X210Y922D01*
X212Y922D01*
X212Y920D01*
X214Y920D01*
X214Y918D01*
X216Y918D01*
X216Y916D01*
X218Y916D01*
X218Y914D01*
X220Y914D01*
X220Y910D01*
X242Y910D01*
X242Y912D01*
X244Y912D01*
X244Y916D01*
X246Y916D01*
X246Y918D01*
X248Y918D01*
X248Y920D01*
X250Y920D01*
X250Y922D01*
X254Y922D01*
X254Y924D01*
X256Y924D01*
X256Y944D01*
X254Y944D01*
X254Y946D01*
X252Y946D01*
X252Y948D01*
X250Y948D01*
X250Y950D01*
X248Y950D01*
X248Y952D01*
X246Y952D01*
X246Y954D01*
X244Y954D01*
X244Y956D01*
X242Y956D01*
X242Y958D01*
X220Y958D01*
G37*
D02*
G36*
X320Y958D02*
X320Y956D01*
X318Y956D01*
X318Y954D01*
X316Y954D01*
X316Y952D01*
X314Y952D01*
X314Y950D01*
X312Y950D01*
X312Y948D01*
X310Y948D01*
X310Y946D01*
X308Y946D01*
X308Y944D01*
X306Y944D01*
X306Y924D01*
X310Y924D01*
X310Y922D01*
X312Y922D01*
X312Y920D01*
X314Y920D01*
X314Y918D01*
X316Y918D01*
X316Y916D01*
X318Y916D01*
X318Y914D01*
X320Y914D01*
X320Y910D01*
X342Y910D01*
X342Y912D01*
X344Y912D01*
X344Y916D01*
X346Y916D01*
X346Y918D01*
X348Y918D01*
X348Y920D01*
X350Y920D01*
X350Y922D01*
X354Y922D01*
X354Y924D01*
X356Y924D01*
X356Y944D01*
X354Y944D01*
X354Y946D01*
X352Y946D01*
X352Y948D01*
X350Y948D01*
X350Y950D01*
X348Y950D01*
X348Y952D01*
X346Y952D01*
X346Y954D01*
X344Y954D01*
X344Y956D01*
X342Y956D01*
X342Y958D01*
X320Y958D01*
G37*
D02*
G36*
X120Y858D02*
X120Y856D01*
X118Y856D01*
X118Y854D01*
X116Y854D01*
X116Y852D01*
X114Y852D01*
X114Y850D01*
X112Y850D01*
X112Y848D01*
X110Y848D01*
X110Y846D01*
X108Y846D01*
X108Y844D01*
X106Y844D01*
X106Y824D01*
X110Y824D01*
X110Y822D01*
X112Y822D01*
X112Y820D01*
X114Y820D01*
X114Y818D01*
X116Y818D01*
X116Y816D01*
X118Y816D01*
X118Y814D01*
X120Y814D01*
X120Y810D01*
X142Y810D01*
X142Y812D01*
X144Y812D01*
X144Y816D01*
X146Y816D01*
X146Y818D01*
X148Y818D01*
X148Y820D01*
X150Y820D01*
X150Y822D01*
X154Y822D01*
X154Y824D01*
X156Y824D01*
X156Y844D01*
X154Y844D01*
X154Y846D01*
X152Y846D01*
X152Y848D01*
X150Y848D01*
X150Y850D01*
X148Y850D01*
X148Y852D01*
X146Y852D01*
X146Y854D01*
X144Y854D01*
X144Y856D01*
X142Y856D01*
X142Y858D01*
X120Y858D01*
G37*
D02*
G36*
X220Y858D02*
X220Y856D01*
X218Y856D01*
X218Y854D01*
X216Y854D01*
X216Y852D01*
X214Y852D01*
X214Y850D01*
X212Y850D01*
X212Y848D01*
X210Y848D01*
X210Y846D01*
X208Y846D01*
X208Y844D01*
X206Y844D01*
X206Y824D01*
X210Y824D01*
X210Y822D01*
X212Y822D01*
X212Y820D01*
X214Y820D01*
X214Y818D01*
X216Y818D01*
X216Y816D01*
X218Y816D01*
X218Y814D01*
X220Y814D01*
X220Y810D01*
X242Y810D01*
X242Y812D01*
X244Y812D01*
X244Y816D01*
X246Y816D01*
X246Y818D01*
X248Y818D01*
X248Y820D01*
X250Y820D01*
X250Y822D01*
X254Y822D01*
X254Y824D01*
X256Y824D01*
X256Y844D01*
X254Y844D01*
X254Y846D01*
X252Y846D01*
X252Y848D01*
X250Y848D01*
X250Y850D01*
X248Y850D01*
X248Y852D01*
X246Y852D01*
X246Y854D01*
X244Y854D01*
X244Y856D01*
X242Y856D01*
X242Y858D01*
X220Y858D01*
G37*
D02*
G36*
X320Y858D02*
X320Y856D01*
X318Y856D01*
X318Y854D01*
X316Y854D01*
X316Y852D01*
X314Y852D01*
X314Y850D01*
X312Y850D01*
X312Y848D01*
X310Y848D01*
X310Y846D01*
X308Y846D01*
X308Y844D01*
X306Y844D01*
X306Y824D01*
X310Y824D01*
X310Y822D01*
X312Y822D01*
X312Y820D01*
X314Y820D01*
X314Y818D01*
X316Y818D01*
X316Y816D01*
X318Y816D01*
X318Y814D01*
X320Y814D01*
X320Y810D01*
X342Y810D01*
X342Y812D01*
X344Y812D01*
X344Y816D01*
X346Y816D01*
X346Y818D01*
X348Y818D01*
X348Y820D01*
X350Y820D01*
X350Y822D01*
X354Y822D01*
X354Y824D01*
X356Y824D01*
X356Y844D01*
X354Y844D01*
X354Y846D01*
X352Y846D01*
X352Y848D01*
X350Y848D01*
X350Y850D01*
X348Y850D01*
X348Y852D01*
X346Y852D01*
X346Y854D01*
X344Y854D01*
X344Y856D01*
X342Y856D01*
X342Y858D01*
X320Y858D01*
G37*
D02*
G36*
X120Y758D02*
X120Y756D01*
X118Y756D01*
X118Y754D01*
X116Y754D01*
X116Y752D01*
X114Y752D01*
X114Y750D01*
X112Y750D01*
X112Y748D01*
X110Y748D01*
X110Y746D01*
X108Y746D01*
X108Y744D01*
X106Y744D01*
X106Y724D01*
X110Y724D01*
X110Y722D01*
X112Y722D01*
X112Y720D01*
X114Y720D01*
X114Y718D01*
X116Y718D01*
X116Y716D01*
X118Y716D01*
X118Y714D01*
X120Y714D01*
X120Y710D01*
X142Y710D01*
X142Y712D01*
X144Y712D01*
X144Y716D01*
X146Y716D01*
X146Y718D01*
X148Y718D01*
X148Y720D01*
X150Y720D01*
X150Y722D01*
X154Y722D01*
X154Y724D01*
X156Y724D01*
X156Y744D01*
X154Y744D01*
X154Y746D01*
X152Y746D01*
X152Y748D01*
X150Y748D01*
X150Y750D01*
X148Y750D01*
X148Y752D01*
X146Y752D01*
X146Y754D01*
X144Y754D01*
X144Y756D01*
X142Y756D01*
X142Y758D01*
X120Y758D01*
G37*
D02*
G36*
X220Y758D02*
X220Y756D01*
X218Y756D01*
X218Y754D01*
X216Y754D01*
X216Y752D01*
X214Y752D01*
X214Y750D01*
X212Y750D01*
X212Y748D01*
X210Y748D01*
X210Y746D01*
X208Y746D01*
X208Y744D01*
X206Y744D01*
X206Y724D01*
X210Y724D01*
X210Y722D01*
X212Y722D01*
X212Y720D01*
X214Y720D01*
X214Y718D01*
X216Y718D01*
X216Y716D01*
X218Y716D01*
X218Y714D01*
X220Y714D01*
X220Y710D01*
X242Y710D01*
X242Y712D01*
X244Y712D01*
X244Y716D01*
X246Y716D01*
X246Y718D01*
X248Y718D01*
X248Y720D01*
X250Y720D01*
X250Y722D01*
X254Y722D01*
X254Y724D01*
X256Y724D01*
X256Y744D01*
X254Y744D01*
X254Y746D01*
X252Y746D01*
X252Y748D01*
X250Y748D01*
X250Y750D01*
X248Y750D01*
X248Y752D01*
X246Y752D01*
X246Y754D01*
X244Y754D01*
X244Y756D01*
X242Y756D01*
X242Y758D01*
X220Y758D01*
G37*
D02*
G36*
X320Y758D02*
X320Y756D01*
X318Y756D01*
X318Y754D01*
X316Y754D01*
X316Y752D01*
X314Y752D01*
X314Y750D01*
X312Y750D01*
X312Y748D01*
X310Y748D01*
X310Y746D01*
X308Y746D01*
X308Y744D01*
X306Y744D01*
X306Y724D01*
X310Y724D01*
X310Y722D01*
X312Y722D01*
X312Y720D01*
X314Y720D01*
X314Y718D01*
X316Y718D01*
X316Y716D01*
X318Y716D01*
X318Y714D01*
X320Y714D01*
X320Y710D01*
X342Y710D01*
X342Y712D01*
X344Y712D01*
X344Y716D01*
X346Y716D01*
X346Y718D01*
X348Y718D01*
X348Y720D01*
X350Y720D01*
X350Y722D01*
X354Y722D01*
X354Y724D01*
X356Y724D01*
X356Y744D01*
X354Y744D01*
X354Y746D01*
X352Y746D01*
X352Y748D01*
X350Y748D01*
X350Y750D01*
X348Y750D01*
X348Y752D01*
X346Y752D01*
X346Y754D01*
X344Y754D01*
X344Y756D01*
X342Y756D01*
X342Y758D01*
X320Y758D01*
G37*
D02*
G36*
X120Y658D02*
X120Y656D01*
X118Y656D01*
X118Y654D01*
X116Y654D01*
X116Y652D01*
X114Y652D01*
X114Y650D01*
X112Y650D01*
X112Y648D01*
X110Y648D01*
X110Y646D01*
X108Y646D01*
X108Y644D01*
X106Y644D01*
X106Y624D01*
X110Y624D01*
X110Y622D01*
X112Y622D01*
X112Y620D01*
X114Y620D01*
X114Y618D01*
X116Y618D01*
X116Y616D01*
X118Y616D01*
X118Y614D01*
X120Y614D01*
X120Y610D01*
X142Y610D01*
X142Y612D01*
X144Y612D01*
X144Y616D01*
X146Y616D01*
X146Y618D01*
X148Y618D01*
X148Y620D01*
X150Y620D01*
X150Y622D01*
X154Y622D01*
X154Y624D01*
X156Y624D01*
X156Y644D01*
X154Y644D01*
X154Y646D01*
X152Y646D01*
X152Y648D01*
X150Y648D01*
X150Y650D01*
X148Y650D01*
X148Y652D01*
X146Y652D01*
X146Y654D01*
X144Y654D01*
X144Y656D01*
X142Y656D01*
X142Y658D01*
X120Y658D01*
G37*
D02*
G36*
X220Y658D02*
X220Y656D01*
X218Y656D01*
X218Y654D01*
X216Y654D01*
X216Y652D01*
X214Y652D01*
X214Y650D01*
X212Y650D01*
X212Y648D01*
X210Y648D01*
X210Y646D01*
X208Y646D01*
X208Y644D01*
X206Y644D01*
X206Y624D01*
X210Y624D01*
X210Y622D01*
X212Y622D01*
X212Y620D01*
X214Y620D01*
X214Y618D01*
X216Y618D01*
X216Y616D01*
X218Y616D01*
X218Y614D01*
X220Y614D01*
X220Y610D01*
X242Y610D01*
X242Y612D01*
X244Y612D01*
X244Y616D01*
X246Y616D01*
X246Y618D01*
X248Y618D01*
X248Y620D01*
X250Y620D01*
X250Y622D01*
X254Y622D01*
X254Y624D01*
X256Y624D01*
X256Y644D01*
X254Y644D01*
X254Y646D01*
X252Y646D01*
X252Y648D01*
X250Y648D01*
X250Y650D01*
X248Y650D01*
X248Y652D01*
X246Y652D01*
X246Y654D01*
X244Y654D01*
X244Y656D01*
X242Y656D01*
X242Y658D01*
X220Y658D01*
G37*
D02*
G36*
X320Y658D02*
X320Y656D01*
X318Y656D01*
X318Y654D01*
X316Y654D01*
X316Y652D01*
X314Y652D01*
X314Y650D01*
X312Y650D01*
X312Y648D01*
X310Y648D01*
X310Y646D01*
X308Y646D01*
X308Y644D01*
X306Y644D01*
X306Y624D01*
X310Y624D01*
X310Y622D01*
X312Y622D01*
X312Y620D01*
X314Y620D01*
X314Y618D01*
X316Y618D01*
X316Y616D01*
X318Y616D01*
X318Y614D01*
X320Y614D01*
X320Y610D01*
X342Y610D01*
X342Y612D01*
X344Y612D01*
X344Y616D01*
X346Y616D01*
X346Y618D01*
X348Y618D01*
X348Y620D01*
X350Y620D01*
X350Y622D01*
X354Y622D01*
X354Y624D01*
X356Y624D01*
X356Y644D01*
X354Y644D01*
X354Y646D01*
X352Y646D01*
X352Y648D01*
X350Y648D01*
X350Y650D01*
X348Y650D01*
X348Y652D01*
X346Y652D01*
X346Y654D01*
X344Y654D01*
X344Y656D01*
X342Y656D01*
X342Y658D01*
X320Y658D01*
G37*
D02*
G36*
X422Y1562D02*
X422Y1558D01*
X420Y1558D01*
X420Y1556D01*
X418Y1556D01*
X418Y1554D01*
X416Y1554D01*
X416Y1552D01*
X414Y1552D01*
X414Y1550D01*
X412Y1550D01*
X412Y1548D01*
X410Y1548D01*
X410Y1546D01*
X408Y1546D01*
X408Y1544D01*
X406Y1544D01*
X406Y1524D01*
X410Y1524D01*
X410Y1522D01*
X412Y1522D01*
X412Y1520D01*
X414Y1520D01*
X414Y1518D01*
X416Y1518D01*
X416Y1516D01*
X418Y1516D01*
X418Y1514D01*
X420Y1514D01*
X420Y1510D01*
X422Y1510D01*
X422Y1508D01*
X424Y1508D01*
X424Y1504D01*
X426Y1504D01*
X426Y1500D01*
X428Y1500D01*
X428Y1494D01*
X430Y1494D01*
X430Y1476D01*
X428Y1476D01*
X428Y1470D01*
X426Y1470D01*
X426Y1466D01*
X424Y1466D01*
X424Y1462D01*
X422Y1462D01*
X422Y1458D01*
X420Y1458D01*
X420Y1456D01*
X418Y1456D01*
X418Y1454D01*
X416Y1454D01*
X416Y1452D01*
X414Y1452D01*
X414Y1450D01*
X412Y1450D01*
X412Y1448D01*
X410Y1448D01*
X410Y1446D01*
X408Y1446D01*
X408Y1444D01*
X406Y1444D01*
X406Y1424D01*
X410Y1424D01*
X410Y1422D01*
X412Y1422D01*
X412Y1420D01*
X414Y1420D01*
X414Y1418D01*
X416Y1418D01*
X416Y1416D01*
X418Y1416D01*
X418Y1414D01*
X420Y1414D01*
X420Y1410D01*
X422Y1410D01*
X422Y1408D01*
X424Y1408D01*
X424Y1404D01*
X426Y1404D01*
X426Y1400D01*
X428Y1400D01*
X428Y1394D01*
X430Y1394D01*
X430Y1376D01*
X428Y1376D01*
X428Y1370D01*
X426Y1370D01*
X426Y1366D01*
X424Y1366D01*
X424Y1362D01*
X422Y1362D01*
X422Y1358D01*
X420Y1358D01*
X420Y1356D01*
X418Y1356D01*
X418Y1354D01*
X416Y1354D01*
X416Y1352D01*
X414Y1352D01*
X414Y1350D01*
X412Y1350D01*
X412Y1348D01*
X410Y1348D01*
X410Y1346D01*
X408Y1346D01*
X408Y1344D01*
X406Y1344D01*
X406Y1324D01*
X410Y1324D01*
X410Y1322D01*
X412Y1322D01*
X412Y1320D01*
X414Y1320D01*
X414Y1318D01*
X416Y1318D01*
X416Y1316D01*
X418Y1316D01*
X418Y1314D01*
X420Y1314D01*
X420Y1310D01*
X422Y1310D01*
X422Y1308D01*
X424Y1308D01*
X424Y1304D01*
X426Y1304D01*
X426Y1300D01*
X428Y1300D01*
X428Y1294D01*
X430Y1294D01*
X430Y1276D01*
X428Y1276D01*
X428Y1270D01*
X426Y1270D01*
X426Y1266D01*
X424Y1266D01*
X424Y1262D01*
X422Y1262D01*
X422Y1258D01*
X420Y1258D01*
X420Y1256D01*
X418Y1256D01*
X418Y1254D01*
X416Y1254D01*
X416Y1252D01*
X414Y1252D01*
X414Y1250D01*
X412Y1250D01*
X412Y1248D01*
X410Y1248D01*
X410Y1246D01*
X408Y1246D01*
X408Y1244D01*
X406Y1244D01*
X406Y1224D01*
X410Y1224D01*
X410Y1222D01*
X412Y1222D01*
X412Y1220D01*
X414Y1220D01*
X414Y1218D01*
X416Y1218D01*
X416Y1216D01*
X418Y1216D01*
X418Y1214D01*
X420Y1214D01*
X420Y1210D01*
X422Y1210D01*
X422Y1208D01*
X424Y1208D01*
X424Y1204D01*
X426Y1204D01*
X426Y1200D01*
X428Y1200D01*
X428Y1194D01*
X430Y1194D01*
X430Y1176D01*
X428Y1176D01*
X428Y1170D01*
X426Y1170D01*
X426Y1166D01*
X424Y1166D01*
X424Y1162D01*
X422Y1162D01*
X422Y1158D01*
X420Y1158D01*
X420Y1156D01*
X418Y1156D01*
X418Y1154D01*
X416Y1154D01*
X416Y1152D01*
X414Y1152D01*
X414Y1150D01*
X412Y1150D01*
X412Y1148D01*
X410Y1148D01*
X410Y1146D01*
X408Y1146D01*
X408Y1144D01*
X406Y1144D01*
X406Y1124D01*
X410Y1124D01*
X410Y1122D01*
X412Y1122D01*
X412Y1120D01*
X414Y1120D01*
X414Y1118D01*
X416Y1118D01*
X416Y1116D01*
X418Y1116D01*
X418Y1114D01*
X420Y1114D01*
X420Y1110D01*
X422Y1110D01*
X422Y1108D01*
X424Y1108D01*
X424Y1104D01*
X426Y1104D01*
X426Y1100D01*
X428Y1100D01*
X428Y1094D01*
X430Y1094D01*
X430Y1076D01*
X428Y1076D01*
X428Y1070D01*
X426Y1070D01*
X426Y1066D01*
X424Y1066D01*
X424Y1062D01*
X422Y1062D01*
X422Y1058D01*
X420Y1058D01*
X420Y1056D01*
X418Y1056D01*
X418Y1054D01*
X416Y1054D01*
X416Y1052D01*
X414Y1052D01*
X414Y1050D01*
X412Y1050D01*
X412Y1048D01*
X410Y1048D01*
X410Y1046D01*
X408Y1046D01*
X408Y1044D01*
X406Y1044D01*
X406Y1024D01*
X410Y1024D01*
X410Y1022D01*
X412Y1022D01*
X412Y1020D01*
X414Y1020D01*
X414Y1018D01*
X416Y1018D01*
X416Y1016D01*
X418Y1016D01*
X418Y1014D01*
X420Y1014D01*
X420Y1010D01*
X422Y1010D01*
X422Y1008D01*
X424Y1008D01*
X424Y1004D01*
X426Y1004D01*
X426Y1000D01*
X428Y1000D01*
X428Y994D01*
X430Y994D01*
X430Y976D01*
X428Y976D01*
X428Y970D01*
X426Y970D01*
X426Y966D01*
X424Y966D01*
X424Y962D01*
X422Y962D01*
X422Y958D01*
X420Y958D01*
X420Y956D01*
X418Y956D01*
X418Y954D01*
X416Y954D01*
X416Y952D01*
X414Y952D01*
X414Y950D01*
X412Y950D01*
X412Y948D01*
X410Y948D01*
X410Y946D01*
X408Y946D01*
X408Y944D01*
X406Y944D01*
X406Y924D01*
X410Y924D01*
X410Y922D01*
X412Y922D01*
X412Y920D01*
X414Y920D01*
X414Y918D01*
X416Y918D01*
X416Y916D01*
X418Y916D01*
X418Y914D01*
X420Y914D01*
X420Y910D01*
X422Y910D01*
X422Y908D01*
X424Y908D01*
X424Y904D01*
X426Y904D01*
X426Y900D01*
X428Y900D01*
X428Y894D01*
X430Y894D01*
X430Y876D01*
X428Y876D01*
X428Y870D01*
X426Y870D01*
X426Y866D01*
X424Y866D01*
X424Y862D01*
X422Y862D01*
X422Y858D01*
X420Y858D01*
X420Y856D01*
X418Y856D01*
X418Y854D01*
X416Y854D01*
X416Y852D01*
X414Y852D01*
X414Y850D01*
X412Y850D01*
X412Y848D01*
X410Y848D01*
X410Y846D01*
X408Y846D01*
X408Y844D01*
X406Y844D01*
X406Y824D01*
X410Y824D01*
X410Y822D01*
X412Y822D01*
X412Y820D01*
X414Y820D01*
X414Y818D01*
X416Y818D01*
X416Y816D01*
X418Y816D01*
X418Y814D01*
X420Y814D01*
X420Y810D01*
X422Y810D01*
X422Y808D01*
X424Y808D01*
X424Y804D01*
X426Y804D01*
X426Y800D01*
X428Y800D01*
X428Y794D01*
X430Y794D01*
X430Y776D01*
X428Y776D01*
X428Y770D01*
X426Y770D01*
X426Y766D01*
X424Y766D01*
X424Y762D01*
X422Y762D01*
X422Y758D01*
X420Y758D01*
X420Y756D01*
X418Y756D01*
X418Y754D01*
X416Y754D01*
X416Y752D01*
X414Y752D01*
X414Y750D01*
X412Y750D01*
X412Y748D01*
X410Y748D01*
X410Y746D01*
X408Y746D01*
X408Y744D01*
X406Y744D01*
X406Y724D01*
X410Y724D01*
X410Y722D01*
X412Y722D01*
X412Y720D01*
X414Y720D01*
X414Y718D01*
X416Y718D01*
X416Y716D01*
X418Y716D01*
X418Y714D01*
X420Y714D01*
X420Y710D01*
X422Y710D01*
X422Y708D01*
X424Y708D01*
X424Y704D01*
X426Y704D01*
X426Y700D01*
X428Y700D01*
X428Y694D01*
X430Y694D01*
X430Y676D01*
X428Y676D01*
X428Y670D01*
X426Y670D01*
X426Y666D01*
X424Y666D01*
X424Y662D01*
X422Y662D01*
X422Y658D01*
X420Y658D01*
X420Y656D01*
X418Y656D01*
X418Y654D01*
X416Y654D01*
X416Y652D01*
X414Y652D01*
X414Y650D01*
X412Y650D01*
X412Y648D01*
X410Y648D01*
X410Y646D01*
X408Y646D01*
X408Y644D01*
X406Y644D01*
X406Y624D01*
X410Y624D01*
X410Y622D01*
X412Y622D01*
X412Y620D01*
X414Y620D01*
X414Y618D01*
X416Y618D01*
X416Y616D01*
X418Y616D01*
X418Y614D01*
X420Y614D01*
X420Y610D01*
X422Y610D01*
X422Y608D01*
X424Y608D01*
X424Y604D01*
X426Y604D01*
X426Y600D01*
X428Y600D01*
X428Y594D01*
X430Y594D01*
X430Y576D01*
X428Y576D01*
X428Y570D01*
X426Y570D01*
X426Y566D01*
X424Y566D01*
X424Y562D01*
X422Y562D01*
X422Y558D01*
X420Y558D01*
X420Y556D01*
X418Y556D01*
X418Y554D01*
X416Y554D01*
X416Y552D01*
X414Y552D01*
X414Y550D01*
X412Y550D01*
X412Y548D01*
X410Y548D01*
X410Y546D01*
X408Y546D01*
X408Y544D01*
X404Y544D01*
X404Y542D01*
X400Y542D01*
X400Y540D01*
X396Y540D01*
X396Y538D01*
X392Y538D01*
X392Y536D01*
X460Y536D01*
X460Y1562D01*
X422Y1562D01*
G37*
D02*
G36*
X120Y558D02*
X120Y556D01*
X118Y556D01*
X118Y554D01*
X116Y554D01*
X116Y552D01*
X114Y552D01*
X114Y550D01*
X112Y550D01*
X112Y548D01*
X110Y548D01*
X110Y546D01*
X108Y546D01*
X108Y544D01*
X104Y544D01*
X104Y542D01*
X100Y542D01*
X100Y540D01*
X96Y540D01*
X96Y538D01*
X92Y538D01*
X92Y536D01*
X172Y536D01*
X172Y538D01*
X166Y538D01*
X166Y540D01*
X162Y540D01*
X162Y542D01*
X158Y542D01*
X158Y544D01*
X154Y544D01*
X154Y546D01*
X152Y546D01*
X152Y548D01*
X150Y548D01*
X150Y550D01*
X148Y550D01*
X148Y552D01*
X146Y552D01*
X146Y554D01*
X144Y554D01*
X144Y556D01*
X142Y556D01*
X142Y558D01*
X120Y558D01*
G37*
D02*
G36*
X220Y558D02*
X220Y556D01*
X218Y556D01*
X218Y554D01*
X216Y554D01*
X216Y552D01*
X214Y552D01*
X214Y550D01*
X212Y550D01*
X212Y548D01*
X210Y548D01*
X210Y546D01*
X208Y546D01*
X208Y544D01*
X204Y544D01*
X204Y542D01*
X200Y542D01*
X200Y540D01*
X196Y540D01*
X196Y538D01*
X192Y538D01*
X192Y536D01*
X272Y536D01*
X272Y538D01*
X266Y538D01*
X266Y540D01*
X262Y540D01*
X262Y542D01*
X258Y542D01*
X258Y544D01*
X254Y544D01*
X254Y546D01*
X252Y546D01*
X252Y548D01*
X250Y548D01*
X250Y550D01*
X248Y550D01*
X248Y552D01*
X246Y552D01*
X246Y554D01*
X244Y554D01*
X244Y556D01*
X242Y556D01*
X242Y558D01*
X220Y558D01*
G37*
D02*
G36*
X320Y558D02*
X320Y556D01*
X318Y556D01*
X318Y554D01*
X316Y554D01*
X316Y552D01*
X314Y552D01*
X314Y550D01*
X312Y550D01*
X312Y548D01*
X310Y548D01*
X310Y546D01*
X308Y546D01*
X308Y544D01*
X304Y544D01*
X304Y542D01*
X300Y542D01*
X300Y540D01*
X296Y540D01*
X296Y538D01*
X292Y538D01*
X292Y536D01*
X372Y536D01*
X372Y538D01*
X366Y538D01*
X366Y540D01*
X362Y540D01*
X362Y542D01*
X358Y542D01*
X358Y544D01*
X354Y544D01*
X354Y546D01*
X352Y546D01*
X352Y548D01*
X350Y548D01*
X350Y550D01*
X348Y550D01*
X348Y552D01*
X346Y552D01*
X346Y554D01*
X344Y554D01*
X344Y556D01*
X342Y556D01*
X342Y558D01*
X320Y558D01*
G37*
D02*
G36*
X40Y542D02*
X40Y536D01*
X72Y536D01*
X72Y538D01*
X66Y538D01*
X66Y540D01*
X62Y540D01*
X62Y542D01*
X40Y542D01*
G37*
D02*
G36*
X40Y536D02*
X40Y534D01*
X460Y534D01*
X460Y536D01*
X40Y536D01*
G37*
D02*
G36*
X40Y536D02*
X40Y534D01*
X460Y534D01*
X460Y536D01*
X40Y536D01*
G37*
D02*
G36*
X40Y536D02*
X40Y534D01*
X460Y534D01*
X460Y536D01*
X40Y536D01*
G37*
D02*
G36*
X40Y536D02*
X40Y534D01*
X460Y534D01*
X460Y536D01*
X40Y536D01*
G37*
D02*
G36*
X40Y536D02*
X40Y534D01*
X460Y534D01*
X460Y536D01*
X40Y536D01*
G37*
D02*
G36*
X40Y534D02*
X40Y136D01*
X672Y136D01*
X672Y138D01*
X666Y138D01*
X666Y140D01*
X662Y140D01*
X662Y142D01*
X658Y142D01*
X658Y144D01*
X654Y144D01*
X654Y146D01*
X652Y146D01*
X652Y148D01*
X650Y148D01*
X650Y150D01*
X648Y150D01*
X648Y152D01*
X646Y152D01*
X646Y154D01*
X644Y154D01*
X644Y156D01*
X642Y156D01*
X642Y158D01*
X640Y158D01*
X640Y162D01*
X616Y162D01*
X616Y164D01*
X474Y164D01*
X474Y166D01*
X470Y166D01*
X470Y168D01*
X468Y168D01*
X468Y170D01*
X466Y170D01*
X466Y172D01*
X464Y172D01*
X464Y174D01*
X462Y174D01*
X462Y178D01*
X460Y178D01*
X460Y534D01*
X40Y534D01*
G37*
D02*
G36*
X720Y158D02*
X720Y156D01*
X718Y156D01*
X718Y154D01*
X716Y154D01*
X716Y152D01*
X714Y152D01*
X714Y150D01*
X712Y150D01*
X712Y148D01*
X710Y148D01*
X710Y146D01*
X708Y146D01*
X708Y144D01*
X704Y144D01*
X704Y142D01*
X702Y142D01*
X702Y140D01*
X696Y140D01*
X696Y138D01*
X692Y138D01*
X692Y136D01*
X772Y136D01*
X772Y138D01*
X766Y138D01*
X766Y140D01*
X762Y140D01*
X762Y142D01*
X758Y142D01*
X758Y144D01*
X754Y144D01*
X754Y146D01*
X752Y146D01*
X752Y148D01*
X750Y148D01*
X750Y150D01*
X748Y150D01*
X748Y152D01*
X746Y152D01*
X746Y154D01*
X744Y154D01*
X744Y156D01*
X742Y156D01*
X742Y158D01*
X720Y158D01*
G37*
D02*
G36*
X820Y158D02*
X820Y156D01*
X818Y156D01*
X818Y154D01*
X816Y154D01*
X816Y152D01*
X814Y152D01*
X814Y150D01*
X812Y150D01*
X812Y148D01*
X810Y148D01*
X810Y146D01*
X808Y146D01*
X808Y144D01*
X804Y144D01*
X804Y142D01*
X802Y142D01*
X802Y140D01*
X796Y140D01*
X796Y138D01*
X792Y138D01*
X792Y136D01*
X858Y136D01*
X858Y144D01*
X854Y144D01*
X854Y146D01*
X852Y146D01*
X852Y148D01*
X850Y148D01*
X850Y150D01*
X848Y150D01*
X848Y152D01*
X846Y152D01*
X846Y154D01*
X844Y154D01*
X844Y156D01*
X842Y156D01*
X842Y158D01*
X820Y158D01*
G37*
D02*
G36*
X40Y136D02*
X40Y134D01*
X858Y134D01*
X858Y136D01*
X40Y136D01*
G37*
D02*
G36*
X40Y136D02*
X40Y134D01*
X858Y134D01*
X858Y136D01*
X40Y136D01*
G37*
D02*
G36*
X40Y136D02*
X40Y134D01*
X858Y134D01*
X858Y136D01*
X40Y136D01*
G37*
D02*
G36*
X40Y134D02*
X40Y40D01*
X842Y40D01*
X842Y62D01*
X840Y62D01*
X840Y66D01*
X838Y66D01*
X838Y70D01*
X836Y70D01*
X836Y74D01*
X834Y74D01*
X834Y94D01*
X836Y94D01*
X836Y100D01*
X838Y100D01*
X838Y104D01*
X840Y104D01*
X840Y108D01*
X842Y108D01*
X842Y110D01*
X844Y110D01*
X844Y112D01*
X846Y112D01*
X846Y116D01*
X848Y116D01*
X848Y118D01*
X850Y118D01*
X850Y120D01*
X854Y120D01*
X854Y122D01*
X856Y122D01*
X856Y124D01*
X858Y124D01*
X858Y134D01*
X40Y134D01*
G37*
D02*
G36*
X720Y258D02*
X720Y256D01*
X718Y256D01*
X718Y254D01*
X716Y254D01*
X716Y252D01*
X714Y252D01*
X714Y250D01*
X712Y250D01*
X712Y248D01*
X710Y248D01*
X710Y246D01*
X708Y246D01*
X708Y244D01*
X706Y244D01*
X706Y224D01*
X710Y224D01*
X710Y222D01*
X712Y222D01*
X712Y220D01*
X714Y220D01*
X714Y218D01*
X716Y218D01*
X716Y216D01*
X718Y216D01*
X718Y214D01*
X720Y214D01*
X720Y210D01*
X742Y210D01*
X742Y212D01*
X744Y212D01*
X744Y216D01*
X746Y216D01*
X746Y218D01*
X748Y218D01*
X748Y220D01*
X750Y220D01*
X750Y222D01*
X754Y222D01*
X754Y224D01*
X756Y224D01*
X756Y244D01*
X754Y244D01*
X754Y246D01*
X752Y246D01*
X752Y248D01*
X750Y248D01*
X750Y250D01*
X748Y250D01*
X748Y252D01*
X746Y252D01*
X746Y254D01*
X744Y254D01*
X744Y256D01*
X742Y256D01*
X742Y258D01*
X720Y258D01*
G37*
D02*
G36*
X820Y258D02*
X820Y256D01*
X818Y256D01*
X818Y254D01*
X816Y254D01*
X816Y252D01*
X814Y252D01*
X814Y250D01*
X812Y250D01*
X812Y248D01*
X810Y248D01*
X810Y246D01*
X808Y246D01*
X808Y244D01*
X806Y244D01*
X806Y224D01*
X810Y224D01*
X810Y222D01*
X812Y222D01*
X812Y220D01*
X814Y220D01*
X814Y218D01*
X816Y218D01*
X816Y216D01*
X818Y216D01*
X818Y214D01*
X820Y214D01*
X820Y210D01*
X842Y210D01*
X842Y212D01*
X844Y212D01*
X844Y216D01*
X846Y216D01*
X846Y218D01*
X848Y218D01*
X848Y220D01*
X850Y220D01*
X850Y222D01*
X854Y222D01*
X854Y224D01*
X856Y224D01*
X856Y244D01*
X854Y244D01*
X854Y246D01*
X852Y246D01*
X852Y248D01*
X850Y248D01*
X850Y250D01*
X848Y250D01*
X848Y252D01*
X846Y252D01*
X846Y254D01*
X844Y254D01*
X844Y256D01*
X842Y256D01*
X842Y258D01*
X820Y258D01*
G37*
D02*
G36*
X920Y258D02*
X920Y256D01*
X918Y256D01*
X918Y254D01*
X916Y254D01*
X916Y252D01*
X914Y252D01*
X914Y250D01*
X912Y250D01*
X912Y248D01*
X910Y248D01*
X910Y246D01*
X908Y246D01*
X908Y244D01*
X906Y244D01*
X906Y224D01*
X910Y224D01*
X910Y222D01*
X912Y222D01*
X912Y220D01*
X914Y220D01*
X914Y218D01*
X916Y218D01*
X916Y216D01*
X918Y216D01*
X918Y214D01*
X920Y214D01*
X920Y210D01*
X942Y210D01*
X942Y212D01*
X944Y212D01*
X944Y216D01*
X946Y216D01*
X946Y218D01*
X948Y218D01*
X948Y220D01*
X950Y220D01*
X950Y222D01*
X954Y222D01*
X954Y224D01*
X956Y224D01*
X956Y244D01*
X954Y244D01*
X954Y246D01*
X952Y246D01*
X952Y248D01*
X950Y248D01*
X950Y250D01*
X948Y250D01*
X948Y252D01*
X946Y252D01*
X946Y254D01*
X944Y254D01*
X944Y256D01*
X942Y256D01*
X942Y258D01*
X920Y258D01*
G37*
D02*
G36*
X1024Y164D02*
X1024Y162D01*
X1022Y162D01*
X1022Y158D01*
X1020Y158D01*
X1020Y156D01*
X1018Y156D01*
X1018Y154D01*
X1016Y154D01*
X1016Y152D01*
X1014Y152D01*
X1014Y150D01*
X1012Y150D01*
X1012Y148D01*
X1010Y148D01*
X1010Y146D01*
X1008Y146D01*
X1008Y144D01*
X1004Y144D01*
X1004Y124D01*
X1006Y124D01*
X1006Y122D01*
X1010Y122D01*
X1010Y120D01*
X1012Y120D01*
X1012Y118D01*
X1014Y118D01*
X1014Y116D01*
X1016Y116D01*
X1016Y114D01*
X1018Y114D01*
X1018Y110D01*
X1020Y110D01*
X1020Y108D01*
X1022Y108D01*
X1022Y104D01*
X1024Y104D01*
X1024Y100D01*
X1026Y100D01*
X1026Y94D01*
X1028Y94D01*
X1028Y74D01*
X1026Y74D01*
X1026Y68D01*
X1024Y68D01*
X1024Y64D01*
X1022Y64D01*
X1022Y62D01*
X1020Y62D01*
X1020Y40D01*
X1088Y40D01*
X1088Y164D01*
X1024Y164D01*
G37*
D02*
G36*
X920Y158D02*
X920Y156D01*
X918Y156D01*
X918Y154D01*
X916Y154D01*
X916Y152D01*
X914Y152D01*
X914Y150D01*
X912Y150D01*
X912Y148D01*
X910Y148D01*
X910Y146D01*
X908Y146D01*
X908Y144D01*
X904Y144D01*
X904Y124D01*
X906Y124D01*
X906Y122D01*
X910Y122D01*
X910Y120D01*
X912Y120D01*
X912Y118D01*
X914Y118D01*
X914Y116D01*
X916Y116D01*
X916Y114D01*
X918Y114D01*
X918Y110D01*
X920Y110D01*
X920Y108D01*
X942Y108D01*
X942Y110D01*
X944Y110D01*
X944Y112D01*
X946Y112D01*
X946Y116D01*
X948Y116D01*
X948Y118D01*
X950Y118D01*
X950Y120D01*
X954Y120D01*
X954Y122D01*
X956Y122D01*
X956Y124D01*
X958Y124D01*
X958Y144D01*
X954Y144D01*
X954Y146D01*
X952Y146D01*
X952Y148D01*
X950Y148D01*
X950Y150D01*
X948Y150D01*
X948Y152D01*
X946Y152D01*
X946Y154D01*
X944Y154D01*
X944Y156D01*
X942Y156D01*
X942Y158D01*
X920Y158D01*
G37*
D02*
G54D14*
X578Y1545D02*
X582Y1545D01*
X678Y1545D02*
X682Y1545D01*
X778Y1545D02*
X782Y1545D01*
X573Y1544D02*
X588Y1544D01*
X673Y1544D02*
X688Y1544D01*
X772Y1544D02*
X788Y1544D01*
X570Y1543D02*
X591Y1543D01*
X670Y1543D02*
X691Y1543D01*
X769Y1543D02*
X791Y1543D01*
X567Y1542D02*
X593Y1542D01*
X667Y1542D02*
X693Y1542D01*
X767Y1542D02*
X793Y1542D01*
X566Y1541D02*
X595Y1541D01*
X665Y1541D02*
X695Y1541D01*
X765Y1541D02*
X795Y1541D01*
X564Y1540D02*
X596Y1540D01*
X664Y1540D02*
X696Y1540D01*
X764Y1540D02*
X796Y1540D01*
X563Y1539D02*
X598Y1539D01*
X662Y1539D02*
X698Y1539D01*
X762Y1539D02*
X798Y1539D01*
X561Y1538D02*
X599Y1538D01*
X661Y1538D02*
X699Y1538D01*
X761Y1538D02*
X799Y1538D01*
X560Y1537D02*
X600Y1537D01*
X660Y1537D02*
X700Y1537D01*
X760Y1537D02*
X800Y1537D01*
X559Y1536D02*
X601Y1536D01*
X659Y1536D02*
X701Y1536D01*
X759Y1536D02*
X801Y1536D01*
X558Y1535D02*
X602Y1535D01*
X658Y1535D02*
X702Y1535D01*
X758Y1535D02*
X802Y1535D01*
X557Y1534D02*
X603Y1534D01*
X657Y1534D02*
X703Y1534D01*
X757Y1534D02*
X803Y1534D01*
X557Y1533D02*
X604Y1533D01*
X657Y1533D02*
X704Y1533D01*
X756Y1533D02*
X804Y1533D01*
X556Y1532D02*
X604Y1532D01*
X656Y1532D02*
X704Y1532D01*
X756Y1532D02*
X804Y1532D01*
X555Y1531D02*
X605Y1531D01*
X655Y1531D02*
X705Y1531D01*
X755Y1531D02*
X805Y1531D01*
X555Y1530D02*
X606Y1530D01*
X655Y1530D02*
X706Y1530D01*
X754Y1530D02*
X806Y1530D01*
X554Y1529D02*
X606Y1529D01*
X654Y1529D02*
X706Y1529D01*
X754Y1529D02*
X806Y1529D01*
X554Y1528D02*
X607Y1528D01*
X654Y1528D02*
X707Y1528D01*
X753Y1528D02*
X807Y1528D01*
X553Y1527D02*
X607Y1527D01*
X653Y1527D02*
X707Y1527D01*
X753Y1527D02*
X807Y1527D01*
X553Y1526D02*
X608Y1526D01*
X653Y1526D02*
X707Y1526D01*
X753Y1526D02*
X807Y1526D01*
X552Y1525D02*
X608Y1525D01*
X652Y1525D02*
X708Y1525D01*
X752Y1525D02*
X808Y1525D01*
X552Y1524D02*
X608Y1524D01*
X652Y1524D02*
X708Y1524D01*
X752Y1524D02*
X808Y1524D01*
X552Y1523D02*
X609Y1523D01*
X652Y1523D02*
X708Y1523D01*
X752Y1523D02*
X808Y1523D01*
X551Y1522D02*
X609Y1522D01*
X651Y1522D02*
X709Y1522D01*
X751Y1522D02*
X809Y1522D01*
X551Y1521D02*
X609Y1521D01*
X651Y1521D02*
X709Y1521D01*
X751Y1521D02*
X809Y1521D01*
X551Y1520D02*
X609Y1520D01*
X651Y1520D02*
X709Y1520D01*
X751Y1520D02*
X809Y1520D01*
X551Y1519D02*
X609Y1519D01*
X651Y1519D02*
X709Y1519D01*
X751Y1519D02*
X809Y1519D01*
X551Y1518D02*
X609Y1518D01*
X651Y1518D02*
X709Y1518D01*
X751Y1518D02*
X809Y1518D01*
X551Y1517D02*
X610Y1517D01*
X651Y1517D02*
X709Y1517D01*
X751Y1517D02*
X809Y1517D01*
X551Y1516D02*
X610Y1516D01*
X651Y1516D02*
X710Y1516D01*
X751Y1516D02*
X809Y1516D01*
X551Y1515D02*
X610Y1515D01*
X651Y1515D02*
X710Y1515D01*
X751Y1515D02*
X809Y1515D01*
X551Y1514D02*
X610Y1514D01*
X651Y1514D02*
X710Y1514D01*
X751Y1514D02*
X809Y1514D01*
X551Y1513D02*
X610Y1513D01*
X651Y1513D02*
X710Y1513D01*
X751Y1513D02*
X809Y1513D01*
X551Y1512D02*
X610Y1512D01*
X651Y1512D02*
X710Y1512D01*
X751Y1512D02*
X809Y1512D01*
X551Y1511D02*
X610Y1511D01*
X651Y1511D02*
X710Y1511D01*
X751Y1511D02*
X809Y1511D01*
X551Y1510D02*
X610Y1510D01*
X651Y1510D02*
X710Y1510D01*
X751Y1510D02*
X809Y1510D01*
X551Y1509D02*
X610Y1509D01*
X651Y1509D02*
X710Y1509D01*
X751Y1509D02*
X809Y1509D01*
X551Y1508D02*
X610Y1508D01*
X651Y1508D02*
X710Y1508D01*
X751Y1508D02*
X809Y1508D01*
X551Y1507D02*
X610Y1507D01*
X651Y1507D02*
X710Y1507D01*
X751Y1507D02*
X809Y1507D01*
X551Y1506D02*
X610Y1506D01*
X651Y1506D02*
X710Y1506D01*
X751Y1506D02*
X809Y1506D01*
X551Y1505D02*
X578Y1505D01*
X582Y1505D02*
X610Y1505D01*
X651Y1505D02*
X678Y1505D01*
X682Y1505D02*
X710Y1505D01*
X751Y1505D02*
X778Y1505D01*
X782Y1505D02*
X809Y1505D01*
X551Y1504D02*
X573Y1504D01*
X587Y1504D02*
X610Y1504D01*
X651Y1504D02*
X673Y1504D01*
X687Y1504D02*
X710Y1504D01*
X751Y1504D02*
X773Y1504D01*
X787Y1504D02*
X809Y1504D01*
X551Y1503D02*
X571Y1503D01*
X589Y1503D02*
X610Y1503D01*
X651Y1503D02*
X671Y1503D01*
X689Y1503D02*
X710Y1503D01*
X751Y1503D02*
X771Y1503D01*
X789Y1503D02*
X809Y1503D01*
X551Y1502D02*
X569Y1502D01*
X591Y1502D02*
X610Y1502D01*
X651Y1502D02*
X669Y1502D01*
X691Y1502D02*
X710Y1502D01*
X751Y1502D02*
X769Y1502D01*
X791Y1502D02*
X809Y1502D01*
X551Y1501D02*
X568Y1501D01*
X593Y1501D02*
X610Y1501D01*
X651Y1501D02*
X668Y1501D01*
X693Y1501D02*
X710Y1501D01*
X751Y1501D02*
X767Y1501D01*
X793Y1501D02*
X809Y1501D01*
X551Y1500D02*
X566Y1500D01*
X594Y1500D02*
X610Y1500D01*
X651Y1500D02*
X666Y1500D01*
X694Y1500D02*
X710Y1500D01*
X751Y1500D02*
X766Y1500D01*
X794Y1500D02*
X809Y1500D01*
X551Y1499D02*
X565Y1499D01*
X595Y1499D02*
X610Y1499D01*
X651Y1499D02*
X665Y1499D01*
X695Y1499D02*
X710Y1499D01*
X751Y1499D02*
X765Y1499D01*
X795Y1499D02*
X809Y1499D01*
X551Y1498D02*
X564Y1498D01*
X596Y1498D02*
X610Y1498D01*
X651Y1498D02*
X664Y1498D01*
X696Y1498D02*
X710Y1498D01*
X751Y1498D02*
X764Y1498D01*
X796Y1498D02*
X809Y1498D01*
X551Y1497D02*
X564Y1497D01*
X597Y1497D02*
X610Y1497D01*
X651Y1497D02*
X664Y1497D01*
X697Y1497D02*
X710Y1497D01*
X751Y1497D02*
X763Y1497D01*
X797Y1497D02*
X809Y1497D01*
X551Y1496D02*
X563Y1496D01*
X597Y1496D02*
X610Y1496D01*
X651Y1496D02*
X663Y1496D01*
X697Y1496D02*
X710Y1496D01*
X751Y1496D02*
X763Y1496D01*
X797Y1496D02*
X809Y1496D01*
X551Y1495D02*
X562Y1495D01*
X598Y1495D02*
X610Y1495D01*
X651Y1495D02*
X662Y1495D01*
X698Y1495D02*
X710Y1495D01*
X751Y1495D02*
X762Y1495D01*
X798Y1495D02*
X809Y1495D01*
X551Y1494D02*
X562Y1494D01*
X598Y1494D02*
X610Y1494D01*
X651Y1494D02*
X662Y1494D01*
X698Y1494D02*
X710Y1494D01*
X751Y1494D02*
X762Y1494D01*
X798Y1494D02*
X809Y1494D01*
X551Y1493D02*
X561Y1493D01*
X599Y1493D02*
X610Y1493D01*
X651Y1493D02*
X661Y1493D01*
X699Y1493D02*
X710Y1493D01*
X751Y1493D02*
X761Y1493D01*
X799Y1493D02*
X809Y1493D01*
X551Y1492D02*
X561Y1492D01*
X599Y1492D02*
X610Y1492D01*
X651Y1492D02*
X661Y1492D01*
X699Y1492D02*
X710Y1492D01*
X751Y1492D02*
X761Y1492D01*
X799Y1492D02*
X809Y1492D01*
X551Y1491D02*
X561Y1491D01*
X600Y1491D02*
X610Y1491D01*
X651Y1491D02*
X661Y1491D01*
X700Y1491D02*
X710Y1491D01*
X751Y1491D02*
X760Y1491D01*
X800Y1491D02*
X809Y1491D01*
X551Y1490D02*
X560Y1490D01*
X600Y1490D02*
X610Y1490D01*
X651Y1490D02*
X660Y1490D01*
X700Y1490D02*
X710Y1490D01*
X751Y1490D02*
X760Y1490D01*
X800Y1490D02*
X809Y1490D01*
X551Y1489D02*
X560Y1489D01*
X600Y1489D02*
X610Y1489D01*
X651Y1489D02*
X660Y1489D01*
X700Y1489D02*
X710Y1489D01*
X751Y1489D02*
X760Y1489D01*
X800Y1489D02*
X809Y1489D01*
X551Y1488D02*
X560Y1488D01*
X600Y1488D02*
X610Y1488D01*
X651Y1488D02*
X660Y1488D01*
X700Y1488D02*
X710Y1488D01*
X751Y1488D02*
X760Y1488D01*
X800Y1488D02*
X809Y1488D01*
X551Y1487D02*
X560Y1487D01*
X600Y1487D02*
X610Y1487D01*
X651Y1487D02*
X660Y1487D01*
X700Y1487D02*
X710Y1487D01*
X751Y1487D02*
X760Y1487D01*
X800Y1487D02*
X809Y1487D01*
X551Y1486D02*
X560Y1486D01*
X601Y1486D02*
X610Y1486D01*
X651Y1486D02*
X660Y1486D01*
X700Y1486D02*
X710Y1486D01*
X751Y1486D02*
X760Y1486D01*
X800Y1486D02*
X809Y1486D01*
X551Y1485D02*
X560Y1485D01*
X601Y1485D02*
X610Y1485D01*
X651Y1485D02*
X660Y1485D01*
X701Y1485D02*
X710Y1485D01*
X751Y1485D02*
X760Y1485D01*
X800Y1485D02*
X809Y1485D01*
X551Y1484D02*
X560Y1484D01*
X601Y1484D02*
X610Y1484D01*
X651Y1484D02*
X660Y1484D01*
X700Y1484D02*
X710Y1484D01*
X751Y1484D02*
X760Y1484D01*
X800Y1484D02*
X809Y1484D01*
X551Y1483D02*
X560Y1483D01*
X600Y1483D02*
X610Y1483D01*
X651Y1483D02*
X660Y1483D01*
X700Y1483D02*
X710Y1483D01*
X751Y1483D02*
X760Y1483D01*
X800Y1483D02*
X809Y1483D01*
X551Y1482D02*
X560Y1482D01*
X600Y1482D02*
X610Y1482D01*
X651Y1482D02*
X660Y1482D01*
X700Y1482D02*
X710Y1482D01*
X751Y1482D02*
X760Y1482D01*
X800Y1482D02*
X809Y1482D01*
X551Y1481D02*
X560Y1481D01*
X600Y1481D02*
X610Y1481D01*
X651Y1481D02*
X660Y1481D01*
X700Y1481D02*
X710Y1481D01*
X751Y1481D02*
X760Y1481D01*
X800Y1481D02*
X809Y1481D01*
X551Y1480D02*
X560Y1480D01*
X600Y1480D02*
X610Y1480D01*
X651Y1480D02*
X660Y1480D01*
X700Y1480D02*
X710Y1480D01*
X751Y1480D02*
X760Y1480D01*
X800Y1480D02*
X809Y1480D01*
X551Y1479D02*
X561Y1479D01*
X600Y1479D02*
X610Y1479D01*
X651Y1479D02*
X661Y1479D01*
X699Y1479D02*
X710Y1479D01*
X751Y1479D02*
X761Y1479D01*
X799Y1479D02*
X809Y1479D01*
X551Y1478D02*
X561Y1478D01*
X599Y1478D02*
X610Y1478D01*
X651Y1478D02*
X661Y1478D01*
X699Y1478D02*
X710Y1478D01*
X751Y1478D02*
X761Y1478D01*
X799Y1478D02*
X809Y1478D01*
X551Y1477D02*
X561Y1477D01*
X599Y1477D02*
X610Y1477D01*
X651Y1477D02*
X661Y1477D01*
X699Y1477D02*
X710Y1477D01*
X751Y1477D02*
X761Y1477D01*
X799Y1477D02*
X809Y1477D01*
X551Y1476D02*
X562Y1476D01*
X598Y1476D02*
X610Y1476D01*
X651Y1476D02*
X662Y1476D01*
X698Y1476D02*
X710Y1476D01*
X751Y1476D02*
X762Y1476D01*
X798Y1476D02*
X809Y1476D01*
X551Y1475D02*
X563Y1475D01*
X598Y1475D02*
X610Y1475D01*
X651Y1475D02*
X662Y1475D01*
X698Y1475D02*
X710Y1475D01*
X751Y1475D02*
X762Y1475D01*
X798Y1475D02*
X809Y1475D01*
X551Y1474D02*
X563Y1474D01*
X597Y1474D02*
X610Y1474D01*
X651Y1474D02*
X663Y1474D01*
X697Y1474D02*
X710Y1474D01*
X751Y1474D02*
X763Y1474D01*
X797Y1474D02*
X809Y1474D01*
X551Y1473D02*
X564Y1473D01*
X596Y1473D02*
X610Y1473D01*
X651Y1473D02*
X664Y1473D01*
X696Y1473D02*
X710Y1473D01*
X751Y1473D02*
X764Y1473D01*
X796Y1473D02*
X809Y1473D01*
X551Y1472D02*
X565Y1472D01*
X596Y1472D02*
X610Y1472D01*
X651Y1472D02*
X665Y1472D01*
X696Y1472D02*
X710Y1472D01*
X751Y1472D02*
X765Y1472D01*
X795Y1472D02*
X809Y1472D01*
X551Y1471D02*
X566Y1471D01*
X595Y1471D02*
X610Y1471D01*
X651Y1471D02*
X665Y1471D01*
X695Y1471D02*
X710Y1471D01*
X751Y1471D02*
X765Y1471D01*
X795Y1471D02*
X809Y1471D01*
X551Y1470D02*
X567Y1470D01*
X594Y1470D02*
X610Y1470D01*
X651Y1470D02*
X667Y1470D01*
X694Y1470D02*
X710Y1470D01*
X751Y1470D02*
X767Y1470D01*
X793Y1470D02*
X809Y1470D01*
X551Y1469D02*
X568Y1469D01*
X592Y1469D02*
X610Y1469D01*
X651Y1469D02*
X668Y1469D01*
X692Y1469D02*
X710Y1469D01*
X751Y1469D02*
X768Y1469D01*
X792Y1469D02*
X809Y1469D01*
X551Y1468D02*
X569Y1468D01*
X591Y1468D02*
X610Y1468D01*
X651Y1468D02*
X669Y1468D01*
X691Y1468D02*
X710Y1468D01*
X751Y1468D02*
X769Y1468D01*
X791Y1468D02*
X809Y1468D01*
X551Y1467D02*
X571Y1467D01*
X589Y1467D02*
X610Y1467D01*
X651Y1467D02*
X671Y1467D01*
X689Y1467D02*
X710Y1467D01*
X751Y1467D02*
X771Y1467D01*
X789Y1467D02*
X809Y1467D01*
X551Y1466D02*
X574Y1466D01*
X586Y1466D02*
X610Y1466D01*
X651Y1466D02*
X674Y1466D01*
X686Y1466D02*
X710Y1466D01*
X751Y1466D02*
X774Y1466D01*
X786Y1466D02*
X809Y1466D01*
X551Y1465D02*
X610Y1465D01*
X651Y1465D02*
X710Y1465D01*
X751Y1465D02*
X809Y1465D01*
X551Y1464D02*
X610Y1464D01*
X651Y1464D02*
X710Y1464D01*
X751Y1464D02*
X809Y1464D01*
X551Y1463D02*
X610Y1463D01*
X651Y1463D02*
X710Y1463D01*
X751Y1463D02*
X809Y1463D01*
X551Y1462D02*
X610Y1462D01*
X651Y1462D02*
X710Y1462D01*
X751Y1462D02*
X809Y1462D01*
X551Y1461D02*
X610Y1461D01*
X651Y1461D02*
X710Y1461D01*
X751Y1461D02*
X809Y1461D01*
X551Y1460D02*
X610Y1460D01*
X651Y1460D02*
X710Y1460D01*
X751Y1460D02*
X809Y1460D01*
X551Y1459D02*
X610Y1459D01*
X651Y1459D02*
X710Y1459D01*
X751Y1459D02*
X809Y1459D01*
X551Y1458D02*
X610Y1458D01*
X651Y1458D02*
X710Y1458D01*
X751Y1458D02*
X809Y1458D01*
X551Y1457D02*
X610Y1457D01*
X651Y1457D02*
X710Y1457D01*
X751Y1457D02*
X809Y1457D01*
X551Y1456D02*
X610Y1456D01*
X651Y1456D02*
X710Y1456D01*
X751Y1456D02*
X809Y1456D01*
X551Y1455D02*
X610Y1455D01*
X651Y1455D02*
X710Y1455D01*
X751Y1455D02*
X809Y1455D01*
X551Y1454D02*
X610Y1454D01*
X651Y1454D02*
X709Y1454D01*
X751Y1454D02*
X809Y1454D01*
X551Y1453D02*
X610Y1453D01*
X651Y1453D02*
X709Y1453D01*
X751Y1453D02*
X809Y1453D01*
X551Y1452D02*
X609Y1452D01*
X651Y1452D02*
X709Y1452D01*
X751Y1452D02*
X809Y1452D01*
X551Y1451D02*
X609Y1451D01*
X651Y1451D02*
X709Y1451D01*
X751Y1451D02*
X809Y1451D01*
X551Y1450D02*
X609Y1450D01*
X651Y1450D02*
X709Y1450D01*
X751Y1450D02*
X809Y1450D01*
X551Y1449D02*
X609Y1449D01*
X651Y1449D02*
X709Y1449D01*
X751Y1449D02*
X809Y1449D01*
X552Y1448D02*
X609Y1448D01*
X651Y1448D02*
X709Y1448D01*
X751Y1448D02*
X809Y1448D01*
X552Y1447D02*
X608Y1447D01*
X652Y1447D02*
X708Y1447D01*
X752Y1447D02*
X808Y1447D01*
X552Y1446D02*
X608Y1446D01*
X652Y1446D02*
X708Y1446D01*
X752Y1446D02*
X808Y1446D01*
X552Y1445D02*
X608Y1445D01*
X652Y1445D02*
X708Y1445D01*
X752Y1445D02*
X808Y1445D01*
X553Y1444D02*
X607Y1444D01*
X653Y1444D02*
X707Y1444D01*
X753Y1444D02*
X807Y1444D01*
X553Y1443D02*
X607Y1443D01*
X653Y1443D02*
X707Y1443D01*
X753Y1443D02*
X807Y1443D01*
X554Y1442D02*
X607Y1442D01*
X654Y1442D02*
X707Y1442D01*
X754Y1442D02*
X806Y1442D01*
X554Y1441D02*
X606Y1441D01*
X654Y1441D02*
X706Y1441D01*
X754Y1441D02*
X806Y1441D01*
X555Y1440D02*
X606Y1440D01*
X655Y1440D02*
X705Y1440D01*
X755Y1440D02*
X805Y1440D01*
X555Y1439D02*
X605Y1439D01*
X655Y1439D02*
X705Y1439D01*
X755Y1439D02*
X805Y1439D01*
X556Y1438D02*
X604Y1438D01*
X656Y1438D02*
X704Y1438D01*
X756Y1438D02*
X804Y1438D01*
X557Y1437D02*
X603Y1437D01*
X657Y1437D02*
X703Y1437D01*
X757Y1437D02*
X803Y1437D01*
X558Y1436D02*
X603Y1436D01*
X657Y1436D02*
X703Y1436D01*
X757Y1436D02*
X803Y1436D01*
X558Y1435D02*
X602Y1435D01*
X658Y1435D02*
X702Y1435D01*
X758Y1435D02*
X802Y1435D01*
X559Y1434D02*
X601Y1434D01*
X659Y1434D02*
X701Y1434D01*
X759Y1434D02*
X801Y1434D01*
X560Y1433D02*
X600Y1433D01*
X660Y1433D02*
X700Y1433D01*
X760Y1433D02*
X800Y1433D01*
X562Y1432D02*
X599Y1432D01*
X662Y1432D02*
X699Y1432D01*
X761Y1432D02*
X799Y1432D01*
X563Y1431D02*
X597Y1431D01*
X663Y1431D02*
X697Y1431D01*
X763Y1431D02*
X797Y1431D01*
X564Y1430D02*
X596Y1430D01*
X664Y1430D02*
X696Y1430D01*
X764Y1430D02*
X796Y1430D01*
X566Y1429D02*
X594Y1429D01*
X666Y1429D02*
X694Y1429D01*
X766Y1429D02*
X794Y1429D01*
X568Y1428D02*
X592Y1428D01*
X668Y1428D02*
X692Y1428D01*
X768Y1428D02*
X792Y1428D01*
X570Y1427D02*
X590Y1427D01*
X670Y1427D02*
X690Y1427D01*
X770Y1427D02*
X790Y1427D01*
X574Y1426D02*
X587Y1426D01*
X674Y1426D02*
X687Y1426D01*
X773Y1426D02*
X787Y1426D01*
D02*
G04 End of Copper0*
M02*