G04 MADE WITH FRITZING*
G04 WWW.FRITZING.ORG*
G04 DOUBLE SIDED*
G04 HOLES PLATED*
G04 CONTOUR ON CENTER OF CONTOUR VECTOR*
%ASAXBY*%
%FSLAX23Y23*%
%MOIN*%
%OFA0B0*%
%SFA1.0B1.0*%
%ADD10R,0.001000X0.001000*%
%LNSILK1*%
G90*
G70*
G54D10*
X124Y122D02*
X169Y122D01*
X327Y122D02*
X370Y122D01*
X526Y122D02*
X563Y122D01*
X612Y122D02*
X637Y122D01*
X124Y121D02*
X169Y121D01*
X326Y121D02*
X370Y121D01*
X526Y121D02*
X565Y121D01*
X610Y121D02*
X638Y121D01*
X124Y120D02*
X169Y120D01*
X325Y120D02*
X370Y120D01*
X526Y120D02*
X566Y120D01*
X609Y120D02*
X638Y120D01*
X124Y119D02*
X169Y119D01*
X325Y119D02*
X370Y119D01*
X526Y119D02*
X567Y119D01*
X608Y119D02*
X638Y119D01*
X124Y118D02*
X169Y118D01*
X325Y118D02*
X370Y118D01*
X526Y118D02*
X568Y118D01*
X607Y118D02*
X639Y118D01*
X124Y117D02*
X169Y117D01*
X325Y117D02*
X370Y117D01*
X526Y117D02*
X569Y117D01*
X606Y117D02*
X638Y117D01*
X124Y116D02*
X169Y116D01*
X326Y116D02*
X370Y116D01*
X526Y116D02*
X570Y116D01*
X605Y116D02*
X638Y116D01*
X124Y115D02*
X169Y115D01*
X326Y115D02*
X369Y115D01*
X526Y115D02*
X570Y115D01*
X605Y115D02*
X637Y115D01*
X124Y114D02*
X169Y114D01*
X328Y114D02*
X369Y114D01*
X526Y114D02*
X571Y114D01*
X604Y114D02*
X636Y114D01*
X124Y113D02*
X132Y113D01*
X142Y113D02*
X151Y113D01*
X161Y113D02*
X169Y113D01*
X358Y113D02*
X368Y113D01*
X526Y113D02*
X535Y113D01*
X560Y113D02*
X571Y113D01*
X604Y113D02*
X614Y113D01*
X124Y112D02*
X132Y112D01*
X142Y112D02*
X151Y112D01*
X161Y112D02*
X169Y112D01*
X358Y112D02*
X367Y112D01*
X526Y112D02*
X535Y112D01*
X562Y112D02*
X571Y112D01*
X603Y112D02*
X613Y112D01*
X124Y111D02*
X132Y111D01*
X142Y111D02*
X151Y111D01*
X161Y111D02*
X169Y111D01*
X357Y111D02*
X367Y111D01*
X526Y111D02*
X535Y111D01*
X563Y111D02*
X571Y111D01*
X603Y111D02*
X612Y111D01*
X124Y110D02*
X132Y110D01*
X142Y110D02*
X151Y110D01*
X161Y110D02*
X169Y110D01*
X356Y110D02*
X366Y110D01*
X526Y110D02*
X535Y110D01*
X563Y110D02*
X571Y110D01*
X602Y110D02*
X612Y110D01*
X124Y109D02*
X132Y109D01*
X142Y109D02*
X151Y109D01*
X161Y109D02*
X169Y109D01*
X356Y109D02*
X366Y109D01*
X526Y109D02*
X535Y109D01*
X563Y109D02*
X572Y109D01*
X602Y109D02*
X611Y109D01*
X125Y108D02*
X132Y108D01*
X142Y108D02*
X151Y108D01*
X162Y108D02*
X168Y108D01*
X355Y108D02*
X365Y108D01*
X526Y108D02*
X535Y108D01*
X563Y108D02*
X572Y108D01*
X601Y108D02*
X611Y108D01*
X125Y107D02*
X131Y107D01*
X142Y107D02*
X151Y107D01*
X162Y107D02*
X168Y107D01*
X355Y107D02*
X365Y107D01*
X526Y107D02*
X535Y107D01*
X563Y107D02*
X572Y107D01*
X601Y107D02*
X610Y107D01*
X127Y106D02*
X129Y106D01*
X142Y106D02*
X151Y106D01*
X164Y106D02*
X166Y106D01*
X354Y106D02*
X364Y106D01*
X526Y106D02*
X535Y106D01*
X563Y106D02*
X572Y106D01*
X600Y106D02*
X610Y106D01*
X142Y105D02*
X151Y105D01*
X353Y105D02*
X363Y105D01*
X526Y105D02*
X535Y105D01*
X563Y105D02*
X572Y105D01*
X600Y105D02*
X609Y105D01*
X142Y104D02*
X151Y104D01*
X353Y104D02*
X363Y104D01*
X526Y104D02*
X535Y104D01*
X563Y104D02*
X572Y104D01*
X599Y104D02*
X609Y104D01*
X142Y103D02*
X151Y103D01*
X206Y103D02*
X221Y103D01*
X273Y103D02*
X288Y103D01*
X352Y103D02*
X362Y103D01*
X407Y103D02*
X423Y103D01*
X474Y103D02*
X490Y103D01*
X526Y103D02*
X535Y103D01*
X563Y103D02*
X571Y103D01*
X599Y103D02*
X608Y103D01*
X142Y102D02*
X151Y102D01*
X203Y102D02*
X225Y102D01*
X270Y102D02*
X292Y102D01*
X352Y102D02*
X362Y102D01*
X404Y102D02*
X426Y102D01*
X471Y102D02*
X493Y102D01*
X526Y102D02*
X535Y102D01*
X563Y102D02*
X571Y102D01*
X598Y102D02*
X608Y102D01*
X142Y101D02*
X151Y101D01*
X201Y101D02*
X226Y101D01*
X268Y101D02*
X293Y101D01*
X351Y101D02*
X361Y101D01*
X402Y101D02*
X428Y101D01*
X469Y101D02*
X495Y101D01*
X526Y101D02*
X535Y101D01*
X562Y101D02*
X571Y101D01*
X598Y101D02*
X607Y101D01*
X142Y100D02*
X151Y100D01*
X199Y100D02*
X228Y100D01*
X266Y100D02*
X295Y100D01*
X351Y100D02*
X360Y100D01*
X401Y100D02*
X429Y100D01*
X468Y100D02*
X496Y100D01*
X526Y100D02*
X535Y100D01*
X561Y100D02*
X571Y100D01*
X597Y100D02*
X607Y100D01*
X142Y99D02*
X151Y99D01*
X198Y99D02*
X229Y99D01*
X265Y99D02*
X296Y99D01*
X350Y99D02*
X360Y99D01*
X399Y99D02*
X430Y99D01*
X466Y99D02*
X497Y99D01*
X526Y99D02*
X571Y99D01*
X597Y99D02*
X606Y99D01*
X142Y98D02*
X151Y98D01*
X197Y98D02*
X230Y98D01*
X264Y98D02*
X297Y98D01*
X349Y98D02*
X359Y98D01*
X398Y98D02*
X431Y98D01*
X465Y98D02*
X498Y98D01*
X526Y98D02*
X570Y98D01*
X596Y98D02*
X606Y98D01*
X142Y97D02*
X151Y97D01*
X196Y97D02*
X231Y97D01*
X263Y97D02*
X298Y97D01*
X349Y97D02*
X359Y97D01*
X397Y97D02*
X432Y97D01*
X464Y97D02*
X500Y97D01*
X526Y97D02*
X570Y97D01*
X596Y97D02*
X605Y97D01*
X142Y96D02*
X151Y96D01*
X195Y96D02*
X232Y96D01*
X262Y96D02*
X299Y96D01*
X348Y96D02*
X358Y96D01*
X396Y96D02*
X433Y96D01*
X463Y96D02*
X501Y96D01*
X526Y96D02*
X569Y96D01*
X595Y96D02*
X605Y96D01*
X142Y95D02*
X151Y95D01*
X194Y95D02*
X233Y95D01*
X261Y95D02*
X300Y95D01*
X348Y95D02*
X358Y95D01*
X395Y95D02*
X434Y95D01*
X462Y95D02*
X501Y95D01*
X526Y95D02*
X568Y95D01*
X595Y95D02*
X604Y95D01*
X142Y94D02*
X151Y94D01*
X193Y94D02*
X234Y94D01*
X260Y94D02*
X301Y94D01*
X347Y94D02*
X357Y94D01*
X395Y94D02*
X435Y94D01*
X462Y94D02*
X502Y94D01*
X526Y94D02*
X567Y94D01*
X595Y94D02*
X604Y94D01*
X142Y93D02*
X151Y93D01*
X193Y93D02*
X205Y93D01*
X223Y93D02*
X235Y93D01*
X260Y93D02*
X272Y93D01*
X290Y93D02*
X302Y93D01*
X346Y93D02*
X356Y93D01*
X394Y93D02*
X406Y93D01*
X424Y93D02*
X436Y93D01*
X461Y93D02*
X473Y93D01*
X491Y93D02*
X503Y93D01*
X526Y93D02*
X566Y93D01*
X594Y93D02*
X603Y93D01*
X142Y92D02*
X151Y92D01*
X192Y92D02*
X203Y92D01*
X224Y92D02*
X235Y92D01*
X259Y92D02*
X270Y92D01*
X291Y92D02*
X302Y92D01*
X346Y92D02*
X356Y92D01*
X393Y92D02*
X405Y92D01*
X425Y92D02*
X436Y92D01*
X460Y92D02*
X472Y92D01*
X492Y92D02*
X503Y92D01*
X526Y92D02*
X565Y92D01*
X594Y92D02*
X603Y92D01*
X142Y91D02*
X151Y91D01*
X192Y91D02*
X202Y91D01*
X225Y91D02*
X235Y91D01*
X259Y91D02*
X269Y91D01*
X292Y91D02*
X303Y91D01*
X345Y91D02*
X355Y91D01*
X393Y91D02*
X403Y91D01*
X426Y91D02*
X437Y91D01*
X460Y91D02*
X470Y91D01*
X494Y91D02*
X504Y91D01*
X526Y91D02*
X563Y91D01*
X594Y91D02*
X603Y91D01*
X142Y90D02*
X151Y90D01*
X191Y90D02*
X201Y90D01*
X226Y90D02*
X236Y90D01*
X259Y90D02*
X268Y90D01*
X293Y90D02*
X303Y90D01*
X345Y90D02*
X355Y90D01*
X393Y90D02*
X402Y90D01*
X427Y90D02*
X437Y90D01*
X460Y90D02*
X469Y90D01*
X494Y90D02*
X504Y90D01*
X526Y90D02*
X560Y90D01*
X594Y90D02*
X602Y90D01*
X142Y89D02*
X151Y89D01*
X191Y89D02*
X200Y89D01*
X227Y89D02*
X236Y89D01*
X258Y89D02*
X267Y89D01*
X294Y89D02*
X303Y89D01*
X344Y89D02*
X354Y89D01*
X392Y89D02*
X401Y89D01*
X428Y89D02*
X437Y89D01*
X459Y89D02*
X468Y89D01*
X495Y89D02*
X504Y89D01*
X526Y89D02*
X535Y89D01*
X543Y89D02*
X552Y89D01*
X593Y89D02*
X602Y89D01*
X142Y88D02*
X151Y88D01*
X191Y88D02*
X200Y88D01*
X228Y88D02*
X236Y88D01*
X258Y88D02*
X267Y88D01*
X295Y88D02*
X303Y88D01*
X344Y88D02*
X353Y88D01*
X392Y88D02*
X401Y88D01*
X429Y88D02*
X437Y88D01*
X459Y88D02*
X468Y88D01*
X496Y88D02*
X504Y88D01*
X526Y88D02*
X535Y88D01*
X543Y88D02*
X553Y88D01*
X593Y88D02*
X602Y88D01*
X142Y87D02*
X151Y87D01*
X191Y87D02*
X199Y87D01*
X228Y87D02*
X236Y87D01*
X258Y87D02*
X267Y87D01*
X295Y87D02*
X303Y87D01*
X343Y87D02*
X353Y87D01*
X392Y87D02*
X401Y87D01*
X429Y87D02*
X437Y87D01*
X459Y87D02*
X468Y87D01*
X496Y87D02*
X504Y87D01*
X526Y87D02*
X535Y87D01*
X544Y87D02*
X554Y87D01*
X593Y87D02*
X602Y87D01*
X142Y86D02*
X151Y86D01*
X191Y86D02*
X199Y86D01*
X228Y86D02*
X236Y86D01*
X258Y86D02*
X266Y86D01*
X295Y86D02*
X303Y86D01*
X342Y86D02*
X352Y86D01*
X392Y86D02*
X400Y86D01*
X429Y86D02*
X437Y86D01*
X459Y86D02*
X468Y86D01*
X496Y86D02*
X505Y86D01*
X526Y86D02*
X535Y86D01*
X544Y86D02*
X554Y86D01*
X593Y86D02*
X602Y86D01*
X142Y85D02*
X151Y85D01*
X191Y85D02*
X199Y85D01*
X228Y85D02*
X236Y85D01*
X258Y85D02*
X266Y85D01*
X295Y85D02*
X303Y85D01*
X342Y85D02*
X352Y85D01*
X392Y85D02*
X400Y85D01*
X429Y85D02*
X437Y85D01*
X459Y85D02*
X468Y85D01*
X496Y85D02*
X505Y85D01*
X526Y85D02*
X535Y85D01*
X545Y85D02*
X555Y85D01*
X593Y85D02*
X602Y85D01*
X142Y84D02*
X151Y84D01*
X191Y84D02*
X199Y84D01*
X228Y84D02*
X236Y84D01*
X258Y84D02*
X266Y84D01*
X295Y84D02*
X303Y84D01*
X341Y84D02*
X351Y84D01*
X392Y84D02*
X400Y84D01*
X429Y84D02*
X437Y84D01*
X459Y84D02*
X468Y84D01*
X496Y84D02*
X505Y84D01*
X526Y84D02*
X535Y84D01*
X545Y84D02*
X555Y84D01*
X593Y84D02*
X602Y84D01*
X142Y83D02*
X151Y83D01*
X191Y83D02*
X199Y83D01*
X228Y83D02*
X236Y83D01*
X258Y83D02*
X266Y83D01*
X295Y83D02*
X303Y83D01*
X341Y83D02*
X351Y83D01*
X392Y83D02*
X400Y83D01*
X429Y83D02*
X437Y83D01*
X459Y83D02*
X468Y83D01*
X496Y83D02*
X505Y83D01*
X526Y83D02*
X535Y83D01*
X546Y83D02*
X556Y83D01*
X594Y83D02*
X602Y83D01*
X142Y82D02*
X151Y82D01*
X191Y82D02*
X199Y82D01*
X228Y82D02*
X236Y82D01*
X258Y82D02*
X266Y82D01*
X295Y82D02*
X303Y82D01*
X340Y82D02*
X350Y82D01*
X392Y82D02*
X400Y82D01*
X429Y82D02*
X437Y82D01*
X459Y82D02*
X468Y82D01*
X496Y82D02*
X505Y82D01*
X526Y82D02*
X535Y82D01*
X547Y82D02*
X557Y82D01*
X594Y82D02*
X603Y82D01*
X142Y81D02*
X151Y81D01*
X191Y81D02*
X199Y81D01*
X228Y81D02*
X236Y81D01*
X258Y81D02*
X266Y81D01*
X295Y81D02*
X303Y81D01*
X339Y81D02*
X349Y81D01*
X392Y81D02*
X400Y81D01*
X429Y81D02*
X437Y81D01*
X459Y81D02*
X468Y81D01*
X496Y81D02*
X505Y81D01*
X526Y81D02*
X535Y81D01*
X547Y81D02*
X557Y81D01*
X594Y81D02*
X603Y81D01*
X142Y80D02*
X151Y80D01*
X191Y80D02*
X199Y80D01*
X228Y80D02*
X236Y80D01*
X258Y80D02*
X266Y80D01*
X295Y80D02*
X303Y80D01*
X339Y80D02*
X349Y80D01*
X392Y80D02*
X400Y80D01*
X429Y80D02*
X437Y80D01*
X459Y80D02*
X468Y80D01*
X496Y80D02*
X505Y80D01*
X526Y80D02*
X535Y80D01*
X548Y80D02*
X558Y80D01*
X594Y80D02*
X603Y80D01*
X142Y79D02*
X151Y79D01*
X191Y79D02*
X236Y79D01*
X258Y79D02*
X303Y79D01*
X338Y79D02*
X348Y79D01*
X392Y79D02*
X437Y79D01*
X459Y79D02*
X505Y79D01*
X526Y79D02*
X535Y79D01*
X548Y79D02*
X558Y79D01*
X595Y79D02*
X604Y79D01*
X142Y78D02*
X151Y78D01*
X191Y78D02*
X236Y78D01*
X258Y78D02*
X303Y78D01*
X338Y78D02*
X348Y78D01*
X392Y78D02*
X437Y78D01*
X459Y78D02*
X505Y78D01*
X526Y78D02*
X535Y78D01*
X549Y78D02*
X559Y78D01*
X595Y78D02*
X604Y78D01*
X142Y77D02*
X151Y77D01*
X191Y77D02*
X236Y77D01*
X258Y77D02*
X303Y77D01*
X337Y77D02*
X347Y77D01*
X392Y77D02*
X437Y77D01*
X459Y77D02*
X505Y77D01*
X526Y77D02*
X535Y77D01*
X550Y77D02*
X559Y77D01*
X596Y77D02*
X605Y77D01*
X142Y76D02*
X151Y76D01*
X191Y76D02*
X236Y76D01*
X258Y76D02*
X303Y76D01*
X336Y76D02*
X346Y76D01*
X392Y76D02*
X437Y76D01*
X459Y76D02*
X505Y76D01*
X526Y76D02*
X535Y76D01*
X550Y76D02*
X560Y76D01*
X596Y76D02*
X606Y76D01*
X142Y75D02*
X151Y75D01*
X191Y75D02*
X236Y75D01*
X258Y75D02*
X303Y75D01*
X336Y75D02*
X346Y75D01*
X392Y75D02*
X437Y75D01*
X459Y75D02*
X505Y75D01*
X526Y75D02*
X535Y75D01*
X551Y75D02*
X561Y75D01*
X596Y75D02*
X606Y75D01*
X142Y74D02*
X151Y74D01*
X191Y74D02*
X236Y74D01*
X258Y74D02*
X303Y74D01*
X335Y74D02*
X345Y74D01*
X392Y74D02*
X437Y74D01*
X459Y74D02*
X504Y74D01*
X526Y74D02*
X535Y74D01*
X551Y74D02*
X561Y74D01*
X597Y74D02*
X607Y74D01*
X142Y73D02*
X151Y73D01*
X191Y73D02*
X236Y73D01*
X258Y73D02*
X303Y73D01*
X335Y73D02*
X345Y73D01*
X392Y73D02*
X437Y73D01*
X459Y73D02*
X504Y73D01*
X526Y73D02*
X535Y73D01*
X552Y73D02*
X562Y73D01*
X597Y73D02*
X607Y73D01*
X142Y72D02*
X151Y72D01*
X191Y72D02*
X235Y72D01*
X258Y72D02*
X302Y72D01*
X334Y72D02*
X344Y72D01*
X392Y72D02*
X436Y72D01*
X459Y72D02*
X504Y72D01*
X526Y72D02*
X535Y72D01*
X552Y72D02*
X562Y72D01*
X598Y72D02*
X608Y72D01*
X142Y71D02*
X151Y71D01*
X191Y71D02*
X234Y71D01*
X258Y71D02*
X301Y71D01*
X334Y71D02*
X343Y71D01*
X392Y71D02*
X435Y71D01*
X459Y71D02*
X502Y71D01*
X526Y71D02*
X535Y71D01*
X553Y71D02*
X563Y71D01*
X598Y71D02*
X608Y71D01*
X142Y70D02*
X151Y70D01*
X191Y70D02*
X200Y70D01*
X258Y70D02*
X267Y70D01*
X333Y70D02*
X343Y70D01*
X392Y70D02*
X401Y70D01*
X459Y70D02*
X468Y70D01*
X526Y70D02*
X535Y70D01*
X554Y70D02*
X564Y70D01*
X599Y70D02*
X609Y70D01*
X142Y69D02*
X151Y69D01*
X191Y69D02*
X199Y69D01*
X258Y69D02*
X266Y69D01*
X332Y69D02*
X342Y69D01*
X392Y69D02*
X400Y69D01*
X459Y69D02*
X468Y69D01*
X526Y69D02*
X535Y69D01*
X554Y69D02*
X564Y69D01*
X599Y69D02*
X609Y69D01*
X142Y68D02*
X151Y68D01*
X191Y68D02*
X199Y68D01*
X258Y68D02*
X266Y68D01*
X332Y68D02*
X342Y68D01*
X392Y68D02*
X400Y68D01*
X459Y68D02*
X468Y68D01*
X526Y68D02*
X535Y68D01*
X555Y68D02*
X565Y68D01*
X600Y68D02*
X610Y68D01*
X142Y67D02*
X151Y67D01*
X191Y67D02*
X199Y67D01*
X258Y67D02*
X266Y67D01*
X331Y67D02*
X341Y67D01*
X392Y67D02*
X401Y67D01*
X459Y67D02*
X468Y67D01*
X526Y67D02*
X535Y67D01*
X555Y67D02*
X565Y67D01*
X600Y67D02*
X610Y67D01*
X142Y66D02*
X151Y66D01*
X191Y66D02*
X200Y66D01*
X258Y66D02*
X267Y66D01*
X331Y66D02*
X341Y66D01*
X392Y66D02*
X401Y66D01*
X459Y66D02*
X468Y66D01*
X526Y66D02*
X535Y66D01*
X556Y66D02*
X566Y66D01*
X601Y66D02*
X611Y66D01*
X142Y65D02*
X151Y65D01*
X191Y65D02*
X200Y65D01*
X258Y65D02*
X267Y65D01*
X330Y65D02*
X340Y65D01*
X392Y65D02*
X401Y65D01*
X459Y65D02*
X468Y65D01*
X526Y65D02*
X535Y65D01*
X557Y65D02*
X566Y65D01*
X601Y65D02*
X611Y65D01*
X142Y64D02*
X151Y64D01*
X191Y64D02*
X201Y64D01*
X258Y64D02*
X268Y64D01*
X329Y64D02*
X339Y64D01*
X392Y64D02*
X402Y64D01*
X459Y64D02*
X469Y64D01*
X526Y64D02*
X535Y64D01*
X557Y64D02*
X567Y64D01*
X602Y64D02*
X612Y64D01*
X142Y63D02*
X151Y63D01*
X192Y63D02*
X202Y63D01*
X259Y63D02*
X269Y63D01*
X329Y63D02*
X339Y63D01*
X393Y63D02*
X403Y63D01*
X460Y63D02*
X470Y63D01*
X526Y63D02*
X535Y63D01*
X558Y63D02*
X568Y63D01*
X602Y63D02*
X612Y63D01*
X142Y62D02*
X151Y62D01*
X192Y62D02*
X203Y62D01*
X259Y62D02*
X270Y62D01*
X328Y62D02*
X338Y62D01*
X393Y62D02*
X404Y62D01*
X460Y62D02*
X471Y62D01*
X526Y62D02*
X535Y62D01*
X558Y62D02*
X568Y62D01*
X603Y62D02*
X613Y62D01*
X142Y61D02*
X151Y61D01*
X192Y61D02*
X204Y61D01*
X259Y61D02*
X271Y61D01*
X328Y61D02*
X338Y61D01*
X393Y61D02*
X405Y61D01*
X460Y61D02*
X472Y61D01*
X526Y61D02*
X535Y61D01*
X559Y61D02*
X569Y61D01*
X603Y61D02*
X613Y61D01*
X142Y60D02*
X151Y60D01*
X193Y60D02*
X206Y60D01*
X260Y60D02*
X273Y60D01*
X327Y60D02*
X337Y60D01*
X394Y60D02*
X407Y60D01*
X461Y60D02*
X474Y60D01*
X526Y60D02*
X535Y60D01*
X559Y60D02*
X569Y60D01*
X604Y60D02*
X615Y60D01*
X142Y59D02*
X151Y59D01*
X193Y59D02*
X234Y59D01*
X261Y59D02*
X301Y59D01*
X327Y59D02*
X368Y59D01*
X395Y59D02*
X435Y59D01*
X462Y59D02*
X502Y59D01*
X526Y59D02*
X535Y59D01*
X560Y59D02*
X570Y59D01*
X605Y59D02*
X636Y59D01*
X142Y58D02*
X151Y58D01*
X194Y58D02*
X235Y58D01*
X261Y58D02*
X302Y58D01*
X326Y58D02*
X369Y58D01*
X395Y58D02*
X436Y58D01*
X463Y58D02*
X503Y58D01*
X526Y58D02*
X535Y58D01*
X561Y58D02*
X571Y58D01*
X605Y58D02*
X637Y58D01*
X142Y57D02*
X151Y57D01*
X195Y57D02*
X236Y57D01*
X262Y57D02*
X303Y57D01*
X325Y57D02*
X370Y57D01*
X396Y57D02*
X437Y57D01*
X464Y57D02*
X504Y57D01*
X526Y57D02*
X535Y57D01*
X561Y57D02*
X571Y57D01*
X606Y57D02*
X638Y57D01*
X142Y56D02*
X151Y56D01*
X196Y56D02*
X236Y56D01*
X263Y56D02*
X303Y56D01*
X325Y56D02*
X370Y56D01*
X398Y56D02*
X437Y56D01*
X465Y56D02*
X504Y56D01*
X526Y56D02*
X535Y56D01*
X562Y56D02*
X571Y56D01*
X606Y56D02*
X638Y56D01*
X142Y55D02*
X151Y55D01*
X197Y55D02*
X236Y55D01*
X265Y55D02*
X303Y55D01*
X325Y55D02*
X370Y55D01*
X399Y55D02*
X437Y55D01*
X466Y55D02*
X504Y55D01*
X526Y55D02*
X535Y55D01*
X562Y55D02*
X572Y55D01*
X607Y55D02*
X639Y55D01*
X143Y54D02*
X151Y54D01*
X199Y54D02*
X236Y54D01*
X266Y54D02*
X303Y54D01*
X325Y54D02*
X370Y54D01*
X400Y54D02*
X437Y54D01*
X467Y54D02*
X504Y54D01*
X526Y54D02*
X534Y54D01*
X563Y54D02*
X571Y54D01*
X608Y54D02*
X638Y54D01*
X143Y53D02*
X150Y53D01*
X200Y53D02*
X236Y53D01*
X267Y53D02*
X303Y53D01*
X325Y53D02*
X370Y53D01*
X401Y53D02*
X437Y53D01*
X468Y53D02*
X504Y53D01*
X527Y53D02*
X534Y53D01*
X564Y53D02*
X571Y53D01*
X610Y53D02*
X638Y53D01*
X144Y52D02*
X150Y52D01*
X202Y52D02*
X235Y52D01*
X269Y52D02*
X302Y52D01*
X325Y52D02*
X369Y52D01*
X403Y52D02*
X436Y52D01*
X470Y52D02*
X503Y52D01*
X527Y52D02*
X533Y52D01*
X564Y52D02*
X570Y52D01*
X611Y52D02*
X637Y52D01*
X145Y51D02*
X148Y51D01*
X204Y51D02*
X234Y51D01*
X271Y51D02*
X301Y51D01*
X325Y51D02*
X368Y51D01*
X405Y51D02*
X435Y51D01*
X472Y51D02*
X502Y51D01*
X529Y51D02*
X532Y51D01*
X565Y51D02*
X569Y51D01*
X613Y51D02*
X636Y51D01*
D02*
G04 End of Silk1*
M02*