; NON-PLATED HOLES START AT T1
; THROUGH (PLATED) HOLES START AT T100
M48
INCH
T1C0.130000
T100C0.040000
T101C0.035000
T102C0.038000
%
T1
X006811Y008948
T100
X007811Y014848
X006811Y014848
X005811Y014848
T101
X009811Y000848
X008811Y000848
T102
X009811Y006848
X001811Y012848
X003811Y012848
X000811Y009848
X002811Y012848
X001811Y009848
X003811Y009848
X009811Y012848
X000811Y010848
X002811Y009848
X001811Y010848
X003811Y010848
X009811Y009848
X007811Y002848
X000811Y007848
X002811Y010848
X003811Y015848
X006811Y002848
X008811Y002848
X001811Y007848
X003811Y007848
X009811Y010848
X009811Y002848
X002811Y007848
X009811Y015848
X009811Y007848
X000811Y005848
X003811Y013848
X001811Y005848
X003811Y005848
X002811Y005848
X009811Y013848
X000811Y011848
X009811Y005848
X001811Y011848
X003811Y011848
X000811Y008848
X002811Y011848
X003811Y016848
X001811Y008848
X003811Y008848
X009811Y011848
X002811Y008848
X009811Y016848
X009811Y008848
X007811Y001848
X000811Y006848
X003811Y014848
X006811Y001848
X008811Y001848
X001811Y006848
X003811Y006848
X009811Y001848
X002811Y006848
X009811Y014848
X000811Y012848
T00
M30
